<?xml version="1.0" standalone="no"?>
<!DOCTYPE svg PUBLIC "-//W3C//DTD SVG 20010904//EN"
 "http://www.w3.org/TR/2001/REC-SVG-20010904/DTD/svg10.dtd">
<svg version="1.0" xmlns="http://www.w3.org/2000/svg"
 width="906.000000pt" height="910.000000pt" viewBox="0 0 906.000000 910.000000"
 preserveAspectRatio="xMidYMid meet">

<g transform="translate(0.000000,910.000000) scale(0.100000,-0.100000)"
fill="#000000" stroke="none">
<path d="M1317 8463 c-3 -5 -8 -44 -12 -88 l-7 -80 -103 -97 c-96 -91 -106
-98 -157 -106 -30 -5 -64 -8 -76 -7 -14 1 -19 -2 -14 -11 9 -16 144 -163 292
-319 244 -257 378 -402 389 -423 11 -20 9 -26 -18 -51 -32 -30 -39 -59 -19
-79 18 -18 46 -15 96 9 51 25 71 13 46 -27 -14 -21 -12 -24 43 -73 41 -36 64
-49 78 -45 17 4 18 3 5 -8 -16 -14 -19 -71 -6 -99 6 -15 11 -15 49 -2 23 8 44
19 47 24 3 5 28 -14 55 -41 36 -37 44 -50 31 -50 -24 0 -15 -22 15 -38 24 -13
118 -11 168 4 17 5 22 4 17 -4 -4 -6 -35 -20 -69 -31 -34 -10 -97 -35 -138
-54 -94 -43 -104 -65 -56 -115 17 -18 37 -30 44 -28 17 7 28 -13 25 -45 -2
-14 4 -31 12 -38 12 -10 14 -9 9 7 -4 16 8 23 71 46 42 16 79 33 82 38 4 6 -2
7 -17 3 -32 -10 -18 4 41 40 85 52 180 118 176 123 -3 2 -22 -8 -43 -22 -20
-14 -50 -26 -65 -26 -15 0 -51 -9 -79 -20 -28 -12 -57 -19 -63 -16 -6 2 -4 5
4 5 20 1 154 66 191 92 35 25 36 30 5 65 -22 26 -25 27 -55 14 -42 -17 -53 -4
-18 24 15 12 27 31 27 42 0 13 36 60 86 114 47 51 99 119 115 151 16 33 38 65
49 71 24 15 27 33 4 24 -8 -3 -24 -1 -35 5 -27 14 -82 2 -75 -17 10 -27 -11
-22 -40 9 -59 64 -59 62 14 61 37 -1 91 5 121 13 29 9 69 13 87 10 34 -6 47 6
19 17 -8 3 -15 12 -15 20 0 42 -156 32 -272 -17 l-37 -16 -183 188 c-186 190
-212 213 -270 241 -18 8 -38 27 -45 41 -7 15 -30 35 -50 44 -20 10 -47 28 -60
41 -26 26 -38 31 -27 12 4 -7 -14 10 -40 37 -25 28 -46 55 -46 60 0 6 -10 15
-22 20 -13 6 -29 22 -35 36 -16 33 -81 104 -95 104 -13 0 -25 21 -32 56 -3 14
-15 36 -27 50 -12 13 -26 36 -31 51 -5 15 -15 26 -21 25 -7 -1 -12 10 -12 27
0 28 -18 46 -28 29z m93 -255 c41 -45 105 -114 141 -152 297 -317 596 -641
616 -668 l24 -33 -50 -45 c-27 -25 -51 -54 -53 -65 -4 -24 -38 -34 -38 -10 0
12 -6 15 -19 10 -30 -9 -32 7 -12 80 24 85 17 114 -20 83 -7 -7 3 6 25 29 l39
42 -24 30 c-26 33 -39 38 -39 17 0 -8 -6 -16 -12 -19 -7 -2 -10 -8 -6 -12 4
-4 14 -2 23 5 8 7 15 8 15 2 0 -5 -7 -15 -16 -22 -12 -11 -18 -10 -31 3 -16
15 -15 18 6 41 l24 25 -54 58 c-90 97 -141 145 -146 139 -3 -3 2 -12 11 -21
16 -16 20 -25 12 -25 -3 0 -12 7 -21 17 -14 13 -18 14 -25 3 -7 -12 -12 -11
-28 4 -13 11 -22 13 -26 7 -4 -6 -13 -8 -20 -5 -7 3 -19 -2 -26 -11 -7 -8 -9
-15 -5 -15 4 0 3 -6 -3 -12 -15 -18 -9 -77 8 -89 13 -8 13 -11 -2 -23 -10 -7
-14 -16 -10 -20 4 -4 7 -11 7 -16 0 -5 8 -17 17 -27 42 -44 80 -94 76 -99 -3
-2 -36 28 -74 69 -226 241 -516 546 -543 571 -50 48 -54 42 144 210 17 14 32
25 35 25 3 0 39 -36 80 -81z m495 -598 c-3 -5 -11 -10 -16 -10 -6 0 -7 5 -4
10 3 6 11 10 16 10 6 0 7 -4 4 -10z m55 -60 c0 -17 -22 -22 -36 -9 -11 12 -9
14 11 15 14 1 25 -2 25 -6z m-165 -40 c3 -5 1 -10 -4 -10 -6 0 -11 5 -11 10 0
6 2 10 4 10 3 0 8 -4 11 -10z m830 -75 c-22 -8 -159 -12 -140 -4 11 4 49 8 85
8 36 -1 61 -2 55 -4z m-760 -34 c-3 -6 -11 -11 -17 -11 -6 0 -6 6 2 15 14 17
26 13 15 -4z m585 10 c-8 -5 -26 -11 -40 -15 -21 -5 -20 -3 5 9 32 15 60 20
35 6z m-569 -47 l-32 -35 23 -19 c21 -17 25 -17 40 -3 10 9 15 20 12 24 -3 5
-1 9 5 9 22 0 19 -18 -9 -45 l-29 -27 -33 37 c-43 50 -61 75 -52 75 4 0 16 -8
27 -17 19 -17 20 -17 40 10 12 15 25 27 30 27 5 0 -5 -16 -22 -36z m99 -186
c0 -6 -7 -5 -15 2 -8 7 -15 17 -15 22 0 6 7 5 15 -2 8 -7 15 -17 15 -22z m438
-63 c-6 -14 -13 -23 -15 -21 -5 5 15 46 22 46 3 0 -1 -11 -7 -25z m-268 -37
c22 -18 40 -39 40 -47 0 -10 6 -9 27 4 25 16 26 17 19 0 -3 -9 -16 -29 -29
-45 l-22 -27 -52 56 c-41 44 -49 59 -42 73 13 24 14 23 59 -14z m-241 -64
c-14 -18 -24 -11 -15 11 3 9 11 13 16 10 8 -5 7 -11 -1 -21z m186 -330 l60
-14 -53 5 c-28 2 -60 9 -70 14 -23 14 -9 13 63 -5z"/>
<path d="M1694 7854 c1 -11 -12 -21 -39 -29 -22 -7 -34 -13 -27 -14 6 -1 12
-8 12 -16 0 -8 6 -15 14 -15 8 0 16 -3 19 -7 2 -5 2 -2 0 5 -6 25 15 51 37 45
25 -7 26 9 1 31 -18 16 -19 16 -17 0z"/>
<path d="M1764 7786 c4 -12 1 -23 -6 -28 -10 -6 -10 -10 2 -18 10 -6 20 -5 30
5 13 13 12 18 -9 38 -21 20 -23 20 -17 3z"/>
<path d="M1639 7713 c-13 -16 -12 -17 4 -4 9 7 17 15 17 17 0 8 -8 3 -21 -13z"/>
<path d="M2132 7388 c5 -15 28 -23 28 -10 0 5 -7 13 -16 16 -10 4 -14 1 -12
-6z"/>
<path d="M1128 8370 c-83 -44 -142 -135 -118 -181 26 -47 134 1 203 90 35 45
32 65 -13 71 -31 5 -33 6 -11 12 25 7 20 28 -7 28 -9 -1 -34 -10 -54 -20z"/>
<path d="M2820 8059 c0 -6 -6 -9 -12 -7 -7 3 -22 -4 -33 -14 -20 -19 -20 -19
0 -34 17 -12 19 -24 16 -67 -2 -29 -9 -64 -17 -79 -14 -27 -10 -58 8 -58 23 0
210 114 225 137 17 25 17 26 -22 59 -68 58 -165 95 -165 63z"/>
<path d="M3095 7970 c-3 -5 -1 -10 4 -10 6 0 11 5 11 10 0 6 -2 10 -4 10 -3 0
-8 -4 -11 -10z"/>
<path d="M2633 7890 c-13 -5 -23 -11 -23 -14 0 -7 40 6 46 15 6 10 6 10 -23
-1z"/>
<path d="M3050 7858 c-30 -17 -67 -40 -81 -52 -14 -12 -38 -30 -53 -41 -75
-53 -86 -66 -80 -92 6 -22 4 -24 -22 -21 -21 2 -30 9 -32 26 -5 31 -16 28 -70
-21 -82 -74 -79 -73 -108 -46 -22 20 -28 22 -45 10 -18 -11 -26 -9 -59 14 -31
22 -47 26 -91 23 l-53 -3 53 -60 c29 -33 60 -72 69 -87 15 -26 21 -28 82 -28
89 0 135 -15 161 -51 25 -36 34 -34 137 30 96 60 190 110 224 121 21 6 30 4
44 -11 21 -23 25 -24 50 -1 37 35 50 33 63 -8 13 -43 31 -62 31 -33 0 14 5 11
24 -12 13 -16 40 -48 60 -69 20 -22 36 -44 36 -48 0 -16 3 -23 16 -42 23 -33
117 -136 125 -136 3 0 9 14 13 31 5 27 8 30 21 19 8 -7 15 -20 16 -29 0 -12 2
-12 10 4 20 43 -3 -140 -28 -219 -38 -121 -177 -386 -203 -386 -7 0 -80 73
-163 165 -20 22 -37 36 -37 30 0 -5 40 -55 89 -110 49 -55 89 -101 88 -102 -1
-1 -25 3 -52 9 -56 11 -161 5 -275 -16 -138 -25 -463 -188 -660 -331 -30 -22
-60 -39 -66 -37 -6 1 -15 -5 -18 -14 -3 -9 -13 -14 -20 -11 -8 3 -17 -1 -20
-9 -3 -9 -10 -13 -16 -9 -10 6 -50 -13 -62 -30 -5 -6 -8 -6 -8 2 0 7 8 16 17
22 25 14 9 25 -16 11 -27 -14 -44 -4 -38 21 4 13 0 19 -11 19 -16 1 -15 1 0
11 10 6 15 16 11 26 -6 14 -8 14 -20 -3 -12 -17 -13 -16 -14 7 -1 17 -3 19 -6
6 -3 -13 -10 -16 -25 -11 -17 5 -19 3 -13 -18 5 -12 16 -30 27 -39 18 -16 18
-17 -5 -15 -14 0 -23 6 -20 12 2 6 -9 11 -27 12 -16 0 -30 -2 -30 -6 0 -3 16
-23 36 -43 34 -35 35 -39 22 -58 -14 -19 -17 -20 -28 -6 -10 12 -10 19 -1 28
9 9 14 9 21 -3 6 -9 10 -10 10 -3 0 18 -20 27 -33 14 -15 -15 -37 -14 -37 2 0
6 -14 18 -31 26 -21 9 -29 18 -25 30 4 12 2 11 -9 -3 -8 -11 -15 -27 -14 -35
0 -12 3 -10 9 4 8 18 9 18 9 2 1 -10 11 -22 24 -27 16 -6 17 -9 5 -9 -9 -1
-20 4 -23 9 -4 6 -10 8 -15 5 -4 -3 -13 2 -20 10 -7 8 -16 12 -21 9 -10 -6 3
-34 28 -60 16 -16 16 -16 -5 -10 -23 8 -32 -9 -9 -17 14 -5 -30 -46 -51 -47
-7 0 -33 -20 -57 -44 -44 -42 -58 -65 -32 -50 8 5 8 2 -2 -9 -15 -19 -15 -20
-161 123 -184 181 -150 135 84 -111 157 -164 170 -179 162 -179 -5 0 -76 69
-158 153 -82 83 -148 147 -146 140 2 -7 59 -70 128 -140 69 -71 168 -173 221
-228 516 -539 737 -765 771 -791 32 -24 45 -44 58 -87 23 -74 51 -116 114
-175 93 -84 250 -123 412 -103 166 21 454 139 634 261 336 226 598 521 760
855 81 166 134 359 111 402 -5 10 -24 64 -41 120 -17 56 -38 110 -46 120 -9
12 -8 4 4 -22 27 -62 23 -282 -7 -395 -48 -180 -139 -348 -250 -462 -61 -62
-120 -95 -128 -72 -2 5 -22 8 -46 6 l-42 -3 -2 51 c-2 31 5 75 18 113 21 61
35 90 119 237 63 109 136 267 165 357 27 82 41 221 26 251 -5 9 -14 41 -20 70
-7 32 -27 77 -51 112 -46 67 -438 497 -669 732 -131 134 -156 156 -169 145
-13 -10 -15 -9 -9 6 4 10 3 16 -2 12 -6 -3 -14 3 -20 12 -9 16 -13 15 -46 -17
l-37 -35 -94 98 c-102 107 -111 128 -80 201 14 35 6 66 -18 66 -7 0 -23 11
-36 25 -12 13 -27 22 -33 18 -6 -3 -7 -1 -4 4 4 6 -1 17 -10 24 -14 12 -16 12
-8 -1 5 -9 -2 -6 -16 5 -54 46 -51 46 -109 13z m125 -278 c-3 -5 -12 -10 -18
-10 -7 0 -6 4 3 10 19 12 23 12 15 0z m412 -182 c-3 -8 -6 -5 -6 6 -1 11 2 17
5 13 3 -3 4 -12 1 -19z m-2 -49 c11 -17 -1 -21 -15 -4 -8 9 -8 15 -2 15 6 0
14 -5 17 -11z m15 -59 c0 -5 -4 -10 -10 -10 -5 0 -10 5 -10 10 0 6 5 10 10 10
6 0 10 -4 10 -10z m-820 -1165 c-25 -30 -193 -136 -284 -180 -126 -60 -221
-85 -341 -90 l-100 -4 80 8 c44 5 109 16 145 26 96 25 298 119 408 190 108 70
110 71 92 50z m-680 -230 c0 -2 -10 -9 -22 -15 -22 -11 -22 -10 -4 4 21 17 26
19 26 11z"/>
<path d="M2610 7853 c-14 -9 -37 -27 -52 -41 -35 -33 -45 -24 -16 14 13 17 15
23 6 16 -10 -8 -22 -11 -27 -7 -7 3 -8 0 -5 -9 4 -11 0 -16 -10 -16 -10 0 -23
-15 -31 -32 -12 -29 -12 -35 1 -44 7 -6 14 -16 14 -23 0 -25 75 -1 133 43 35
27 81 99 70 110 -12 12 -58 6 -83 -11z"/>
<path d="M3089 7544 c-6 -16 -17 -45 -24 -64 -7 -19 -20 -52 -29 -72 -19 -45
-13 -51 9 -9 22 43 65 164 60 170 -3 2 -10 -9 -16 -25z"/>
<path d="M2885 7415 c-55 -36 -105 -65 -112 -65 -18 0 -16 -29 2 -36 20 -8 20
-77 -2 -143 -9 -28 -13 -54 -9 -58 15 -15 61 24 103 87 46 69 143 251 143 269
0 21 -26 10 -125 -54z"/>
<path d="M3272 7435 c-7 -15 -8 -26 -2 -30 8 -5 30 33 30 51 0 14 -18 0 -28
-21z"/>
<path d="M2610 7340 c8 -5 20 -10 25 -10 6 0 3 5 -5 10 -8 5 -19 10 -25 10 -5
0 -3 -5 5 -10z"/>
<path d="M1446 7246 c-36 -38 -66 -75 -66 -83 0 -8 -25 -57 -55 -109 -51 -86
-59 -114 -35 -114 14 0 197 109 211 126 10 12 10 22 1 48 -16 44 -15 96 4 141
27 65 8 62 -60 -9z"/>
<path d="M2660 7212 c0 -6 -19 -20 -42 -30 -24 -11 -60 -34 -80 -53 -21 -19
-50 -44 -65 -56 -27 -20 -27 -22 -8 -29 11 -4 25 -15 32 -23 10 -13 16 -14 43
-4 27 10 31 10 26 -3 -4 -11 0 -11 19 3 13 10 25 21 25 25 0 5 15 29 34 55 41
59 51 96 31 113 -10 8 -15 9 -15 2z"/>
<path d="M1677 7059 c-9 -6 -35 -11 -57 -11 -22 0 -40 -5 -40 -10 0 -5 -11
-24 -25 -42 -27 -36 -32 -64 -12 -70 53 -17 65 -15 101 16 26 22 33 34 24 39
-8 5 -3 10 15 14 34 9 50 29 42 55 -7 22 -21 25 -48 9z"/>
<path d="M1910 6930 c-40 -22 -65 -26 -54 -8 4 7 3 8 -4 4 -15 -9 -42 -101
-42 -143 0 -46 18 -41 26 7 7 40 24 66 24 36 0 -28 20 -17 27 14 3 17 9 30 14
30 5 0 6 -7 3 -15 -8 -21 3 -19 52 10 l43 25 -17 30 c-20 35 -25 36 -72 10z"/>
<path d="M2590 6932 c0 -13 49 -56 56 -50 3 3 -6 18 -19 32 -25 27 -37 32 -37
18z"/>
<path d="M2680 6852 c0 -7 5 -12 10 -12 6 0 10 -6 10 -14 0 -12 28 -31 36 -24
1 2 -11 16 -27 32 -16 16 -29 24 -29 18z"/>
<path d="M1289 6751 c44 -48 88 -94 96 -101 30 -25 23 -4 -11 34 -35 40 -39
52 -25 75 5 7 5 25 2 40 -6 20 -14 26 -37 27 -16 0 -34 -3 -40 -7 -6 -5 -19
-2 -30 6 -46 35 -30 9 45 -74z"/>
<path d="M1920 6812 c-35 -35 -38 -58 -10 -65 28 -7 82 39 78 67 -5 32 -35 31
-68 -2z"/>
<path d="M2393 6736 c-27 -18 -68 -43 -92 -55 -49 -25 -51 -37 -3 -19 29 11
33 10 62 -20 27 -28 59 -45 46 -24 -2 4 -1 14 5 22 7 13 9 12 9 -2 0 -23 -1
-23 54 8 43 24 59 44 36 44 -5 0 -7 6 -4 13 6 16 -32 67 -51 67 -7 0 -35 -15
-62 -34z"/>
<path d="M1674 6651 c-28 -17 -54 -37 -58 -47 -5 -12 -9 -14 -20 -5 -19 16
-45 -14 -28 -31 17 -17 15 -26 -5 -30 -15 -3 -15 -4 1 -20 26 -26 68 -22 114
12 49 35 104 107 100 129 -5 27 -50 23 -104 -8z"/>
<path d="M2844 6659 c-4 -7 -3 -10 4 -5 6 3 17 -1 26 -10 10 -10 24 -13 37 -9
26 9 14 21 -28 30 -20 4 -34 2 -39 -6z"/>
<path d="M1465 6611 c-3 -6 -47 -33 -98 -62 -95 -55 -117 -71 -117 -87 0 -16
83 -92 123 -113 34 -18 39 -18 67 -4 34 17 47 53 31 83 -15 29 -13 102 4 132
8 14 14 33 15 43 0 18 -15 23 -25 8z"/>
<path d="M2760 6613 c0 -16 38 -45 49 -38 17 10 13 35 -4 29 -8 -4 -22 -1 -30
6 -8 7 -15 8 -15 3z"/>
<path d="M2625 6490 c4 -6 11 -8 16 -5 14 9 11 15 -7 15 -8 0 -12 -5 -9 -10z"/>
<path d="M2482 6430 c7 -11 18 -20 25 -20 18 0 16 10 -4 26 -26 20 -35 17 -21
-6z"/>
<path d="M2399 6422 c5 -9 18 -25 29 -35 17 -16 21 -16 32 -2 10 12 10 15 -2
15 -8 0 -25 9 -38 20 -28 25 -33 25 -21 2z"/>
<path d="M2227 6365 c11 -17 33 -41 47 -54 25 -23 27 -24 43 -8 16 16 16 17
-4 17 -11 0 -26 7 -33 15 -7 9 -27 26 -44 38 l-31 22 22 -30z"/>
<path d="M2391 6364 c0 -11 3 -14 6 -6 3 7 2 16 -1 19 -3 4 -6 -2 -5 -13z"/>
<path d="M2163 6325 c2 -12 -7 -29 -21 -41 -13 -12 -20 -24 -16 -26 5 -2 21 8
36 23 24 24 25 29 12 45 -14 18 -15 18 -11 -1z"/>
<path d="M2205 6278 c-4 -18 -12 -36 -18 -40 -16 -10 -3 -20 16 -12 19 7 33
62 19 76 -7 7 -12 -1 -17 -24z"/>
<path d="M4704 6295 c3 -11 10 -41 17 -68 9 -35 26 -62 70 -109 33 -34 59 -66
59 -71 0 -4 4 -6 8 -3 5 3 15 -6 22 -20 17 -31 108 -123 115 -116 3 3 5 -4 5
-15 0 -22 44 -58 59 -49 10 7 45 -38 85 -106 16 -28 32 -45 40 -42 12 5 27
-22 30 -54 2 -20 28 -32 43 -20 7 6 10 15 6 21 -4 6 4 8 22 3 24 -6 19 2 -40
68 -39 42 -74 72 -81 69 -8 -3 -16 5 -20 22 -3 14 -9 23 -12 21 -3 -3 -20 16
-37 42 -18 26 -40 54 -50 62 -17 14 -17 14 -2 -17 17 -33 23 -62 10 -49 -5 4
-8 11 -8 14 0 4 -9 20 -19 35 -11 16 -20 39 -21 50 -1 14 -8 21 -19 20 -10 0
-22 10 -29 25 -12 29 -32 54 -132 167 -116 131 -127 141 -121 120z"/>
<path d="M1310 6266 c0 -2 8 -10 18 -17 15 -13 16 -12 3 4 -13 16 -21 21 -21
13z"/>
<path d="M1930 6234 c0 -8 5 -12 10 -9 6 3 10 10 10 16 0 5 -4 9 -10 9 -5 0
-10 -7 -10 -16z"/>
<path d="M1400 6178 c24 -27 45 -48 47 -48 8 0 0 9 -44 50 l-48 45 45 -47z"/>
<path d="M1966 6196 c21 -15 30 -14 19 3 -3 6 -14 11 -23 11 -13 0 -13 -2 4
-14z"/>
<path d="M4793 5943 c-13 -12 -30 -56 -47 -122 -67 -264 -284 -586 -567 -838
-188 -167 -323 -261 -514 -354 -140 -68 -255 -103 -409 -124 -159 -22 -156
-21 -156 -51 0 -18 26 -53 98 -127 54 -56 108 -113 120 -126 12 -14 22 -20 22
-15 0 5 -43 52 -95 104 -136 136 -149 180 -52 180 319 0 789 251 1117 596 219
231 398 529 456 757 9 38 24 78 34 89 15 20 20 20 48 9 18 -7 91 -80 174 -172
127 -141 167 -180 156 -150 -4 11 -255 286 -295 322 -39 37 -66 43 -90 22z"/>
<path d="M5270 5610 c0 -18 3 -20 14 -11 10 9 16 8 26 -4 13 -16 40 -21 40 -7
0 6 -27 22 -67 39 -8 3 -13 -3 -13 -17z"/>
<path d="M5212 5588 c-19 -19 -14 -32 17 -56 31 -23 57 -88 87 -217 16 -70 28
-95 47 -95 10 0 4 122 -9 170 l-7 25 26 -24 c39 -36 51 -82 44 -178 -5 -68 -3
-85 9 -90 25 -9 46 17 39 49 -4 16 -2 35 4 42 15 18 -11 102 -60 194 -42 78
-45 87 -29 77 6 -3 10 -1 10 4 0 6 -9 11 -19 11 -11 0 -23 5 -26 10 -10 16 18
12 45 -7 62 -44 70 -54 55 -77 -13 -19 -11 -24 20 -58 18 -20 36 -34 39 -30 3
3 6 0 6 -7 0 -7 19 -33 43 -57 23 -25 47 -54 53 -65 5 -11 13 -17 16 -14 3 3
13 -6 22 -20 10 -15 42 -51 72 -81 30 -30 62 -66 70 -80 9 -13 20 -21 25 -18
5 3 8 1 7 -4 -3 -9 131 -161 202 -230 14 -13 24 -29 22 -34 -1 -5 2 -7 7 -4
10 6 79 -81 105 -132 10 -18 14 -42 11 -52 -4 -12 -2 -20 4 -20 6 0 11 -7 11
-15 0 -8 4 -15 9 -15 12 0 67 -145 75 -194 l5 -40 -72 72 c-40 40 -80 72 -89
72 -26 0 -55 -45 -84 -133 -51 -156 -181 -382 -267 -465 l-34 -33 -19 40 -19
41 -78 -73 c-42 -40 -79 -71 -82 -69 -3 3 -5 0 -5 -6 0 -7 -7 -12 -15 -12 -9
0 -12 6 -9 18 5 14 4 15 -5 2 -7 -10 -13 -12 -21 -4 -7 7 10 31 53 79 187 207
334 453 406 678 67 212 48 259 -236 574 -111 122 -203 219 -206 217 -3 -3 -1
-20 4 -37 5 -18 10 -62 11 -99 0 -52 5 -71 19 -84 32 -28 81 -112 104 -177
l23 -62 11 40 c6 22 16 68 22 103 6 34 15 62 19 62 4 0 24 -19 43 -42 20 -24
59 -68 87 -98 57 -61 106 -153 115 -214 9 -60 -35 -218 -94 -342 -184 -384
-552 -746 -961 -943 -71 -34 -166 -71 -220 -85 -116 -29 -291 -48 -342 -37
-21 5 -38 7 -38 5 0 -9 59 -32 98 -39 23 -4 40 -11 36 -16 -3 -5 0 -9 5 -9 6
0 11 -5 11 -11 0 -14 -100 -2 -167 21 -68 24 -120 61 -228 166 -49 47 -91 81
-93 75 -6 -18 18 -110 48 -181 15 -36 33 -83 40 -105 31 -96 132 -213 265
-308 137 -99 245 -193 277 -244 17 -26 51 -81 74 -121 53 -89 118 -174 197
-258 l59 -63 -54 -25 c-29 -13 -125 -57 -214 -98 -118 -55 -166 -73 -181 -67
-31 11 -322 -48 -357 -73 -16 -11 -55 -24 -90 -28 -52 -7 -315 -106 -396 -150
-28 -15 -59 -84 -60 -131 0 -51 24 -124 56 -171 32 -45 98 -88 138 -88 36 0
399 156 422 181 9 10 22 19 29 19 7 0 49 25 95 56 46 30 118 75 161 100 75 43
86 56 104 120 4 14 28 32 73 52 37 17 144 66 237 109 l170 79 49 -37 c28 -21
78 -54 113 -75 35 -20 63 -40 63 -44 0 -3 -46 -40 -102 -80 -57 -41 -190 -139
-297 -218 -166 -123 -198 -143 -213 -133 -27 17 -59 13 -97 -10 -18 -11 -67
-33 -107 -50 -127 -50 -229 -106 -262 -143 -26 -30 -37 -35 -57 -30 -21 5 -60
-16 -219 -120 -106 -69 -201 -135 -211 -146 -13 -15 -16 -29 -12 -57 16 -94
118 -242 192 -278 l36 -17 205 134 c169 110 205 138 210 161 4 16 12 30 18 32
100 30 129 51 324 236 67 64 92 94 92 112 0 26 98 103 516 409 l171 125 74
-19 c108 -28 282 -34 399 -14 288 50 481 155 555 303 27 52 30 67 30 153 0 80
-4 105 -27 158 l-26 63 51 42 c78 65 222 232 292 337 70 106 140 242 175 340
13 36 38 83 55 105 53 67 165 232 165 243 0 12 -103 133 -228 269 l-85 92 -3
138 c-3 169 -22 249 -93 392 -66 132 -97 177 -171 244 -74 67 -144 105 -275
150 -55 19 -131 46 -170 60 -38 14 -104 32 -145 41 -57 11 -79 21 -90 38 -8
13 -69 81 -134 153 -182 198 -203 222 -316 348 -63 71 -110 115 -118 112 -7
-3 -27 2 -45 11 l-31 17 18 -29 19 -29 -34 31 c-40 38 -70 49 -87 32z m278
-178 c0 -5 -10 -10 -22 -9 -22 0 -22 1 -3 9 11 5 21 9 23 9 1 1 2 -3 2 -9z
m70 -56 c0 -11 -43 13 -51 28 -10 18 -8 18 20 -3 17 -12 31 -24 31 -25z m509
-485 c68 -15 198 -80 269 -133 56 -43 118 -113 165 -188 27 -43 67 -173 66
-215 -1 -31 -4 -25 -18 37 -26 116 -72 201 -154 284 -99 102 -219 170 -359
206 -27 7 -48 17 -48 22 0 6 8 7 17 4 9 -4 37 -11 62 -17z m496 -240 c56 -61
99 -118 92 -125 -3 -3 -11 5 -17 18 -7 12 -49 61 -94 107 -44 46 -67 75 -51
64 17 -12 48 -41 70 -64z m12 -361 c-3 -8 -6 -5 -6 6 -1 11 2 17 5 13 3 -3 4
-12 1 -19z m-353 -122 c119 -134 121 -140 87 -239 -32 -92 -127 -268 -199
-368 -63 -88 -190 -229 -206 -229 -4 0 -35 -22 -68 -49 -34 -28 -64 -49 -67
-48 -13 3 -70 -40 -63 -48 4 -4 -2 -6 -14 -3 -14 4 -25 -1 -33 -13 -13 -22
-31 -25 -31 -6 0 8 -11 24 -25 37 -21 20 -28 22 -50 12 -15 -7 -25 -20 -25
-32 0 -16 -5 -19 -24 -14 -23 5 -56 -16 -56 -37 0 -5 -10 -9 -23 -9 -28 0 -47
-17 -47 -42 0 -10 -5 -18 -11 -18 -5 0 -7 5 -4 10 10 16 -28 12 -52 -5 -12 -9
-20 -22 -17 -29 3 -9 -5 -17 -22 -23 -24 -8 -32 -5 -64 27 -42 42 -95 60 -177
60 -113 0 -223 -54 -223 -110 0 -18 -4 -21 -22 -16 -13 3 -33 6 -45 6 -23 0
-103 64 -103 81 0 5 13 9 28 9 58 0 220 33 302 62 464 164 925 613 1084 1058
28 76 43 103 57 98 4 -2 55 -57 113 -122z m353 72 c-3 -7 -5 -2 -5 12 0 14 2
19 5 13 2 -7 2 -19 0 -25z m58 -294 c-19 -65 -59 -149 -76 -159 -6 -4 -4 6 5
23 9 17 25 57 37 89 35 99 42 114 46 109 3 -2 -3 -31 -12 -62z m76 -485 c-5
-13 -10 -19 -10 -12 -1 15 10 45 15 40 3 -2 0 -15 -5 -28z m-1574 6 c0 -9 -6
-14 -13 -11 -7 3 -17 -1 -23 -8 -9 -10 -6 -12 13 -9 37 7 40 -13 5 -38 -26
-18 -33 -19 -41 -8 -8 11 -9 11 -5 -2 4 -11 -4 -21 -21 -30 -15 -7 -34 -18
-42 -24 -27 -21 -172 -76 -189 -73 -9 2 -22 -3 -29 -12 -11 -13 -12 -11 -7 10
4 16 3 20 -3 12 -6 -9 -16 -10 -32 -4 -21 8 -18 10 26 22 27 7 51 17 54 21 3
3 48 27 100 52 52 24 120 61 150 81 30 19 55 36 56 36 0 0 1 -7 1 -15z m1547
-73 c-85 -205 -267 -448 -459 -614 -91 -78 -235 -184 -235 -173 0 10 28 35 39
35 6 0 11 4 11 8 0 5 11 15 25 22 13 7 22 17 19 21 -2 4 6 13 18 20 12 7 28
17 34 23 6 6 23 21 37 33 14 11 29 27 33 35 5 7 41 43 81 81 39 37 68 67 65
67 -3 0 14 21 40 48 25 26 64 74 88 107 23 33 48 65 54 70 21 18 146 231 146
249 0 9 4 14 10 11 6 -4 4 -20 -6 -43z m-1097 -217 c9 -25 -2 -27 -22 -5 -17
18 -17 20 -1 20 9 0 19 -7 23 -15z m-67 -67 c0 -6 -7 -5 -15 2 -8 7 -15 17
-15 22 0 6 7 5 15 -2 8 -7 15 -17 15 -22z m-85 -28 c3 -5 2 -10 -4 -10 -5 0
-13 5 -16 10 -3 6 -2 10 4 10 5 0 13 -4 16 -10z m-543 -558 c21 -9 242 -241
235 -248 -7 -8 -145 106 -222 185 -51 53 -64 71 -50 70 11 0 28 -3 37 -7z
m1536 -127 c-3 -3 -9 2 -12 12 -6 14 -5 15 5 6 7 -7 10 -15 7 -18z m28 -194
c-5 -56 -45 -150 -73 -172 -11 -9 -10 -3 5 18 39 55 54 113 55 208 1 80 2 85
9 45 5 -25 7 -69 4 -99z m-160 -5 c-9 -36 -44 -75 -89 -98 -73 -37 -197 -63
-182 -37 16 25 90 69 117 69 47 0 97 29 126 73 26 39 39 36 28 -7z m-917 -38
c19 -12 28 -28 16 -28 -10 0 -85 40 -85 45 0 9 46 -2 69 -17z m-796 -283 c-3
-9 -8 -14 -10 -11 -3 3 -2 9 2 15 9 16 15 13 8 -4z m-832 -242 c10 -11 10 -14
2 -9 -16 9 -15 9 -3 -33 7 -24 6 -39 -1 -48 -6 -7 -9 -22 -6 -33 3 -11 2 -20
-3 -20 -4 0 -11 11 -14 25 -3 13 -15 29 -25 35 -28 15 -38 -22 -16 -58 l17
-27 -22 21 c-30 29 -39 104 -16 139 19 30 66 34 87 8z m59 -113 c0 -31 -26
-70 -47 -70 -12 0 -13 3 -3 14 6 8 11 25 9 38 -1 13 2 36 6 52 7 27 9 28 21
11 8 -11 14 -30 14 -45z m27 -647 c29 -32 63 -95 63 -118 0 -9 -6 -22 -12 -29
-21 -22 -64 7 -98 67 -29 50 -37 86 -23 100 14 15 45 6 70 -20z"/>
<path d="M6117 4066 c-9 -7 -17 -19 -17 -27 0 -10 3 -10 12 -1 19 19 30 14 23
-10 -5 -18 -4 -20 4 -8 13 18 14 47 3 54 -4 2 -15 -1 -25 -8z"/>
<path d="M6064 3996 c-19 -48 24 -88 47 -44 11 21 11 22 -4 10 -22 -18 -40 -5
-34 24 5 26 -1 32 -9 10z"/>
<path d="M6030 3918 c0 -8 9 -23 20 -33 16 -15 20 -15 20 -3 0 8 -9 23 -20 33
-16 15 -20 15 -20 3z"/>
<path d="M5987 3871 c-17 -6 -17 -8 3 -34 24 -30 45 -35 54 -11 9 24 7 28 -9
14 -15 -13 -15 -12 -27 26 -2 6 -11 8 -21 5z"/>
<path d="M6126 3825 c-9 -23 -8 -37 3 -31 4 3 16 -3 26 -14 10 -11 22 -20 27
-20 17 0 7 27 -21 54 -24 23 -29 25 -35 11z"/>
<path d="M5946 3791 c-21 -23 -18 -49 6 -64 25 -16 50 9 46 47 -4 37 -27 45
-52 17z m37 -14 c3 -8 1 -20 -4 -28 -11 -19 -34 3 -26 25 8 20 23 21 30 3z"/>
<path d="M6068 3735 c-14 -30 12 -75 42 -75 32 0 47 43 26 75 -21 32 -53 32
-68 0z m47 -17 c9 -14 11 -24 5 -26 -14 -5 -40 17 -40 34 0 21 17 17 35 -8z"/>
<path d="M5885 3710 c-4 -6 -15 -8 -26 -5 -28 9 -23 -7 14 -43 33 -32 34 -32
51 -13 23 26 17 65 -11 69 -11 2 -24 -2 -28 -8z m35 -31 c0 -24 -23 -21 -28 4
-2 10 3 17 12 17 10 0 16 -9 16 -21z"/>
<path d="M6022 3668 c-18 -18 -15 -52 6 -71 25 -23 49 -21 62 3 23 43 -34 102
-68 68z m38 -29 c7 -11 9 -23 6 -26 -8 -9 -36 17 -36 33 0 21 18 17 30 -7z"/>
<path d="M5814 3619 c-14 -15 -16 -24 -8 -37 26 -41 82 -15 70 33 -8 31 -36
33 -62 4z m44 -22 c2 -10 -3 -17 -12 -17 -18 0 -29 16 -21 31 9 14 29 6 33
-14z"/>
<path d="M5967 3592 c-22 -24 -21 -34 4 -66 24 -30 32 -32 53 -10 22 21 20 50
-4 74 -25 25 -32 25 -53 2z m41 -33 c7 -12 11 -23 8 -27 -7 -6 -46 27 -46 40
0 16 25 8 38 -13z"/>
<path d="M5732 3564 c-29 -20 -28 -32 5 -66 33 -35 47 -36 39 -2 -6 22 -4 25
15 22 12 -2 24 3 26 10 3 6 -2 12 -10 12 -8 0 -17 9 -20 20 -6 24 -25 26 -55
4z m38 -13 c0 -12 -20 -25 -27 -18 -7 7 6 27 18 27 5 0 9 -4 9 -9z"/>
<path d="M5940 3495 c-7 -9 -10 -18 -7 -22 8 -7 37 15 37 28 0 14 -16 11 -30
-6z"/>
<path d="M5857 3462 c-9 -10 -17 -24 -17 -30 0 -17 20 -15 26 3 11 28 24 15
24 -25 0 -48 9 -50 39 -9 24 32 22 51 -3 30 -12 -10 -15 -7 -18 16 -4 34 -28
41 -51 15z"/>
<path d="M5636 3442 c-15 -18 -15 -21 5 -45 11 -15 25 -27 30 -27 14 0 11 22
-7 41 -9 10 -11 20 -6 23 5 3 15 -1 22 -9 13 -16 40 -20 40 -7 0 14 -35 42
-52 42 -8 0 -22 -8 -32 -18z"/>
<path d="M5796 3401 c-12 -14 -16 -27 -10 -43 6 -19 5 -21 -8 -11 -19 16 -58
-9 -58 -38 0 -13 -7 -19 -23 -19 -50 0 -62 -46 -20 -79 23 -19 29 -20 47 -8
12 8 22 23 24 35 2 13 9 18 20 15 22 -5 56 31 49 52 -5 11 0 15 16 15 49 0 62
43 24 78 -29 27 -39 27 -61 3z m44 -31 c6 -11 7 -20 2 -20 -10 0 -32 21 -32
32 0 16 19 8 30 -12z m-56 -82 c-3 -5 -14 -2 -25 8 -10 9 -16 21 -13 26 3 5
14 2 25 -8 10 -9 16 -21 13 -26z m-69 -56 c-6 -7 -35 18 -35 31 0 5 9 2 20 -8
11 -10 18 -20 15 -23z"/>
<path d="M5586 3394 c-14 -14 -14 -17 0 -40 9 -13 23 -24 30 -24 17 0 18 16 3
26 -6 3 -9 17 -6 30 5 28 -5 31 -27 8z"/>
<path d="M5510 3329 c-9 -16 -8 -25 6 -40 21 -23 26 -24 54 -1 19 16 21 22 11
40 -15 29 -56 29 -71 1z m70 -13 c0 -2 -7 -7 -16 -10 -8 -3 -12 -2 -9 4 6 10
25 14 25 6z"/>
<path d="M5443 3308 c2 -7 -3 -21 -11 -31 -33 -37 30 -75 72 -44 19 14 18 15
-9 51 -26 34 -62 50 -52 24z m35 -57 c3 -8 -1 -12 -9 -9 -7 2 -15 10 -17 17
-3 8 1 12 9 9 7 -2 15 -10 17 -17z"/>
<path d="M5357 3222 c-23 -25 -21 -41 7 -53 45 -21 87 26 54 59 -17 17 -42 15
-61 -6z m43 -27 c0 -9 -6 -12 -15 -9 -8 4 -15 10 -15 15 0 5 7 9 15 9 8 0 15
-7 15 -15z"/>
<path d="M5274 3195 c-3 -8 -3 -22 0 -31 5 -13 1 -15 -21 -9 -44 11 -45 11
-50 -1 -6 -18 48 -77 60 -65 7 7 7 15 -1 24 -9 11 -6 13 20 9 28 -4 30 -3 25
18 -5 21 -5 21 13 5 30 -27 46 -7 18 22 -34 37 -57 47 -64 28z"/>
<path d="M5630 3195 c-7 -9 -10 -18 -7 -21 6 -7 47 18 47 28 0 14 -27 9 -40
-7z"/>
<path d="M3661 1544 c0 -11 3 -14 6 -6 3 7 2 16 -1 19 -3 4 -6 -2 -5 -13z"/>
<path d="M3820 842 c0 -12 19 -26 26 -19 2 2 -2 10 -11 17 -9 8 -15 8 -15 2z"/>
<path d="M5080 5478 c0 -43 6 -63 33 -105 17 -29 35 -53 39 -53 4 0 10 17 14
38 6 31 2 47 -27 101 -45 84 -59 89 -59 19z m40 -48 c0 -5 -4 -10 -10 -10 -5
0 -10 5 -10 10 0 6 5 10 10 10 6 0 10 -4 10 -10z"/>
<path d="M5165 5485 c4 -27 17 -70 30 -95 13 -25 28 -58 32 -75 l7 -30 4 38
c6 63 -16 140 -49 178 l-30 34 6 -50z"/>
<path d="M4992 5497 c-23 -7 -34 -18 -38 -36 -3 -14 -14 -54 -24 -88 -14 -49
-15 -63 -5 -63 13 0 18 15 31 99 6 42 21 63 60 88 23 14 19 14 -24 0z"/>
<path d="M5007 5443 c-9 -16 -48 -176 -43 -180 11 -12 26 11 26 40 0 18 7 57
15 87 13 50 14 73 2 53z"/>
<path d="M5216 5248 c-21 -30 -20 -68 4 -98 l20 -25 0 73 c0 39 -2 72 -4 72
-3 0 -12 -10 -20 -22z"/>
<path d="M5295 5208 c-65 -186 -99 -258 -172 -373 -224 -346 -591 -666 -936
-816 -174 -75 -284 -101 -444 -103 l-132 -1 -48 45 c-72 69 202 -222 314 -332
l98 -97 83 -11 c116 -17 174 -10 347 42 256 77 530 248 755 469 116 114 206
216 197 225 -2 3 -60 -6 -127 -21 -68 -14 -124 -24 -126 -23 -1 2 45 38 103
82 57 43 107 85 110 93 3 8 -1 65 -10 126 -18 129 -12 187 28 275 29 64 59
100 93 113 19 7 22 16 22 65 0 46 -7 70 -41 135 -50 95 -101 143 -114 107z
m-437 -846 c2 -7 -5 -12 -16 -12 -23 0 -47 -25 -38 -39 4 -6 17 -5 36 2 57 21
87 -19 50 -66 -22 -28 -76 -39 -67 -14 2 6 10 11 17 9 16 -4 40 17 40 35 0 11
-10 12 -49 7 -54 -7 -69 7 -50 50 18 38 67 56 77 28z m-108 -72 c0 -5 -11 -17
-25 -26 -14 -9 -25 -22 -25 -30 0 -22 20 -27 41 -8 27 24 37 9 12 -19 -21 -23
-21 -47 2 -47 7 0 18 7 25 15 7 8 20 15 29 15 11 -1 3 -12 -23 -35 -22 -19
-42 -35 -45 -35 -3 0 -23 26 -43 58 l-38 57 37 33 c37 33 53 40 53 22z m220
-65 c-10 -12 -8 -21 9 -48 12 -19 21 -39 21 -46 0 -22 -16 -11 -34 24 -15 28
-24 34 -40 29 -18 -5 -17 -2 8 25 29 31 60 45 36 16z m-300 -69 c34 -56 38
-68 22 -74 -9 -3 -82 101 -82 118 0 27 31 4 60 -44z m230 8 c0 -3 -9 -13 -20
-22 -14 -12 -17 -21 -10 -32 7 -12 12 -12 22 -2 20 20 33 14 14 -7 -25 -28
-11 -47 20 -26 34 22 30 3 -6 -23 l-29 -22 -27 46 -27 45 23 25 c22 23 40 31
40 18z m-309 -14 c12 -7 19 -21 19 -40 0 -20 6 -31 20 -35 11 -3 20 -10 20
-15 0 -15 -21 -23 -33 -11 -6 6 -19 11 -30 11 -15 0 -17 -5 -12 -30 10 -47
-15 -37 -53 21 -18 28 -31 56 -29 63 3 7 20 20 39 29 40 20 35 19 59 7z m227
-77 c-2 -20 3 -30 20 -39 37 -19 39 -27 3 -20 -31 6 -33 5 -29 -19 7 -37 -8
-31 -38 15 -26 39 -27 67 -2 42 19 -19 28 -14 28 18 0 17 5 30 11 30 6 0 9
-12 7 -27z m-348 9 c0 -5 -11 -14 -25 -20 -14 -6 -25 -16 -25 -22 0 -17 29
-23 45 -10 9 7 19 10 23 6 4 -4 -4 -17 -17 -27 -32 -26 -15 -48 24 -31 31 14
35 15 35 3 0 -8 -60 -51 -72 -51 -6 0 -78 107 -78 115 0 8 63 45 78 45 6 0 12
-4 12 -8z m-109 -72 c6 0 7 -5 3 -11 -3 -6 -15 -9 -25 -6 -20 5 -46 -17 -31
-27 5 -3 25 -5 44 -4 19 1 40 -2 46 -6 15 -9 15 -39 0 -54 -14 -14 -78 -16
-78 -2 0 6 14 10 30 10 20 0 30 5 30 15 0 11 -12 15 -44 15 -47 0 -72 19 -62
45 7 18 45 36 64 29 8 -2 18 -4 23 -4z m379 0 c0 -6 -6 -10 -12 -9 -43 5 -52
-25 -17 -57 20 -18 21 -18 40 6 13 18 19 21 19 9 0 -9 -9 -24 -19 -33 -16 -15
-23 -16 -43 -5 -13 6 -26 17 -30 23 -14 20 -8 55 10 65 22 14 52 14 52 1z
m-89 -87 c44 -32 49 -44 17 -40 -15 1 -26 -5 -33 -20 -18 -42 -30 -30 -40 40
-9 56 0 59 56 20z m-444 -12 c6 -13 19 -28 27 -33 42 -24 -12 -72 -56 -50
l-23 11 26 0 c14 1 29 4 32 8 11 10 -13 32 -29 26 -12 -4 -14 0 -8 21 5 21 3
26 -13 26 -10 0 -24 -5 -31 -12 -17 -17 -27 -2 -12 17 20 24 72 15 87 -14z
m693 9 c8 -16 8 -20 -2 -18 -7 2 -12 -3 -10 -9 1 -7 -2 -13 -8 -13 -13 0 -32
38 -25 50 10 17 34 11 45 -10z m-325 -60 c7 -14 10 -31 7 -36 -11 -16 -38 -23
-53 -13 -11 7 -9 9 9 9 25 0 28 18 7 46 -8 10 -15 25 -15 33 0 19 27 -4 45
-39z m-478 18 c33 -37 44 -63 31 -76 -18 -18 -33 -15 -67 14 -36 30 -55 60
-46 74 11 18 61 11 82 -12z m757 -4 c8 -21 -1 -34 -23 -34 -19 0 -41 19 -41
35 0 5 5 2 11 -7 5 -10 19 -18 29 -18 23 0 26 10 8 28 -8 8 -8 12 -1 12 6 0
14 -7 17 -16z m-876 -10 c19 -13 22 -22 17 -45 -6 -27 -4 -29 22 -30 25 0 26
-1 8 -9 -45 -19 -56 -13 -53 31 2 44 -16 66 -39 47 -15 -13 -28 -4 -18 11 9
16 37 13 63 -5z m-108 -4 c0 -5 -7 -10 -15 -10 -8 0 -15 -4 -15 -10 0 -5 10
-10 23 -10 31 -1 72 -34 64 -53 -6 -15 -42 -13 -52 3 -3 5 4 6 15 3 11 -3 20
-1 20 5 0 17 -29 34 -48 28 -23 -8 -61 39 -39 47 21 9 47 7 47 -3z m911 -40
c7 0 9 -3 6 -7 -4 -3 -16 2 -26 11 -11 10 -26 15 -33 11 -7 -3 -4 1 7 9 18 15
20 15 27 -4 4 -11 13 -20 19 -20z m-337 -11 c18 -44 9 -72 -14 -44 -19 23 -33
18 -26 -10 4 -14 3 -25 -1 -25 -16 0 -88 68 -81 76 5 4 16 0 26 -9 25 -23 35
-21 22 4 -16 28 -6 34 22 15 30 -21 41 -20 28 3 -12 24 -13 31 -1 31 5 0 16
-19 25 -41z m294 -16 c2 -13 -1 -23 -6 -23 -5 0 -9 8 -8 17 0 10 -7 19 -18 21
-15 3 -18 0 -13 -18 4 -17 3 -19 -8 -10 -21 18 -6 42 24 38 18 -2 27 -10 29
-25z m-424 -24 c34 -27 32 -63 -4 -67 -45 -5 -95 66 -57 81 23 10 34 7 61 -14z
m351 1 c18 -20 18 -21 0 -14 -15 6 -17 4 -12 -9 3 -9 3 -17 -2 -17 -5 0 -11
14 -13 30 -5 35 2 38 27 10z m-45 -29 c16 -30 12 -36 -10 -16 -21 19 -26 35
-10 35 5 0 14 -9 20 -19z m-379 -52 l24 -1 -25 -7 c-19 -6 -29 -3 -43 13 -31
36 -39 63 -9 29 16 -19 39 -33 53 -34z m-88 -28 c-5 -7 -44 32 -55 54 -6 11 5
4 24 -15 18 -19 32 -37 31 -39z m373 52 c-1 -13 6 -18 26 -18 14 1 24 -3 22
-7 -8 -13 -41 -9 -54 7 -6 8 -9 19 -5 25 9 15 13 12 11 -7z m-528 -32 l12 -34
-26 27 c-15 14 -31 26 -37 26 -6 0 -7 3 -4 6 4 4 13 1 22 -6 12 -10 15 -9 15
5 0 24 4 18 18 -24z m57 8 c11 -17 -1 -21 -15 -4 -8 9 -8 15 -2 15 6 0 14 -5
17 -11z m411 2 c-7 -11 22 -36 31 -28 3 4 0 13 -7 22 -9 11 -9 15 -1 15 17 0
26 -29 13 -42 -9 -9 -17 -7 -32 7 -22 20 -26 35 -9 35 5 0 8 -4 5 -9z m-37
-55 c-3 -3 -11 5 -18 17 -13 21 -12 21 5 5 10 -10 16 -20 13 -22z m-69 -34 c0
-3 -9 3 -20 13 -11 10 -20 23 -20 28 0 6 9 0 20 -13 11 -13 20 -25 20 -28z"/>
<path d="M4534 4115 c-4 -9 -2 -21 4 -27 15 -15 44 -1 40 19 -4 23 -36 29 -44
8z"/>
<path d="M4612 3909 c2 -7 10 -15 17 -17 8 -3 12 1 9 9 -2 7 -10 15 -17 17 -8
3 -12 -1 -9 -9z"/>
<path d="M4862 3919 c2 -6 8 -10 13 -10 5 0 11 4 13 10 2 6 -4 11 -13 11 -9 0
-15 -5 -13 -11z"/>
<path d="M4040 3876 c0 -20 39 -66 56 -66 22 0 17 22 -11 53 -28 29 -45 35
-45 13z"/>
<path d="M4267 3773 c-12 -11 -8 -31 9 -47 23 -23 46 -20 42 5 -3 23 -40 53
-51 42z"/>
<path d="M5470 4997 c0 -24 6 -52 14 -62 13 -18 15 -18 39 11 l26 29 -32 33
c-17 17 -35 32 -39 32 -4 0 -8 -19 -8 -43z"/>
<path d="M4875 5000 c21 -24 26 -25 19 -6 -3 8 -13 17 -22 21 -13 5 -13 2 3
-15z"/>
<path d="M4840 4986 c0 -2 7 -7 16 -10 8 -3 12 -2 9 4 -6 10 -25 14 -25 6z"/>
<path d="M4830 4962 c0 -5 7 -15 15 -22 8 -7 15 -8 15 -2 0 5 -7 15 -15 22 -8
7 -15 8 -15 2z"/>
<path d="M4790 4919 c0 -21 28 -45 38 -33 4 5 6 8 3 7 -2 -1 -12 8 -22 20 -15
18 -18 19 -19 6z"/>
<path d="M4752 4877 c-7 -8 -6 -18 3 -31 13 -17 15 -17 30 -2 14 13 15 19 5
31 -15 18 -24 19 -38 2z"/>
<path d="M5418 4859 c-51 -29 -41 -77 33 -167 37 -45 47 -52 69 -47 18 4 37
-2 63 -19 20 -14 39 -21 42 -16 13 22 15 109 3 160 -15 62 -39 75 -48 25 -10
-57 -55 -41 -120 43 -20 25 -28 30 -42 21z"/>
<path d="M4901 4847 c2 -1 13 -9 24 -17 19 -14 19 -14 6 3 -7 9 -18 17 -24 17
-6 0 -8 -1 -6 -3z"/>
<path d="M4885 4780 c10 -11 20 -18 23 -15 7 6 -18 35 -31 35 -5 0 -2 -9 8
-20z"/>
<path d="M4848 4754 c12 -23 40 -49 46 -43 2 2 -10 17 -27 34 -20 20 -27 23
-19 9z"/>
<path d="M4636 4744 c-13 -33 30 -58 53 -30 9 11 8 15 -5 20 -24 9 -31 7 -14
-5 13 -9 13 -10 0 -6 -8 2 -14 12 -14 21 2 21 -12 21 -20 0z"/>
<path d="M4828 4724 c13 -9 27 -26 32 -38 9 -21 9 -21 9 0 1 23 -28 54 -50 54
-8 0 -4 -7 9 -16z"/>
<path d="M4611 4708 c0 -10 -8 -18 -18 -18 -14 0 -14 -2 3 -21 10 -11 20 -16
22 -10 2 6 10 11 18 11 8 0 14 5 14 10 0 6 -6 10 -14 10 -8 0 -17 8 -19 18 -4
16 -5 16 -6 0z"/>
<path d="M4790 4703 c0 -11 48 -58 54 -52 2 2 -9 17 -25 33 -16 16 -29 25 -29
19z"/>
<path d="M4785 4655 c14 -13 25 -29 25 -34 0 -34 -57 -5 -62 32 -3 19 -4 20
-10 5 -5 -12 1 -27 17 -45 20 -23 27 -26 42 -17 10 6 20 19 21 28 4 20 -25 56
-44 56 -8 0 -3 -10 11 -25z"/>
<path d="M4546 4651 c-4 -5 -2 -21 4 -36 l10 -27 20 24 c17 21 18 24 3 36 -20
14 -30 15 -37 3z"/>
<path d="M5324 4573 c7 -91 30 -140 76 -164 32 -17 35 -17 52 -2 14 13 21 14
30 5 20 -20 33 -13 58 30 l23 41 -27 24 c-32 27 -44 29 -52 8 -17 -42 -108 25
-135 100 -22 59 -32 41 -25 -42z"/>
<path d="M4500 4600 c0 -12 -5 -17 -14 -14 -20 8 -26 -8 -11 -30 13 -17 14
-17 36 3 13 12 27 21 32 21 6 0 2 9 -8 20 -23 25 -35 25 -35 0z"/>
<path d="M4665 4586 c-10 -7 -15 -20 -12 -32 4 -16 5 -15 6 4 1 17 6 22 19 20
12 -2 18 -14 20 -41 3 -40 12 -46 32 -22 11 13 10 14 -4 9 -13 -5 -16 1 -16
29 0 39 -18 53 -45 33z"/>
<path d="M4600 4525 c-28 -34 32 -93 65 -65 20 17 19 36 -5 60 -24 24 -43 25
-60 5z m50 -20 c18 -19 21 -28 12 -37 -15 -15 -52 16 -52 44 0 25 12 23 40 -7z"/>
<path d="M3633 4495 c-68 -29 -71 -89 -9 -152 25 -24 43 -50 40 -57 -3 -7 4
-20 15 -30 18 -16 26 -17 67 -7 68 17 133 51 151 78 20 31 11 88 -19 121 -52
56 -171 80 -245 47z m167 -64 c36 -26 38 -65 5 -87 -52 -34 -149 10 -143 65 6
51 83 63 138 22z"/>
<path d="M4350 4475 c0 -8 -9 -15 -20 -15 -11 0 -20 -4 -20 -8 0 -5 9 -17 20
-27 13 -11 20 -14 20 -6 0 18 23 38 38 33 11 -3 11 -1 0 17 -15 24 -38 28 -38
6z"/>
<path d="M4551 4463 c0 -16 4 -36 8 -46 6 -17 8 -17 20 -3 9 11 10 16 2 16 -6
0 -11 5 -11 12 0 6 9 3 20 -7 32 -29 36 -8 5 25 -36 37 -45 38 -44 3z"/>
<path d="M4479 4421 c-19 -16 -22 -22 -11 -32 10 -11 12 -9 12 9 0 13 6 22 15
22 16 0 18 -8 15 -52 -1 -19 3 -28 14 -28 11 0 14 8 9 38 -8 55 -24 68 -54 43z"/>
<path d="M4260 4427 c0 -3 5 -18 11 -34 9 -25 12 -26 20 -10 6 9 17 17 26 17
24 0 4 17 -29 25 -16 4 -28 5 -28 2z"/>
<path d="M3326 4404 c-20 -19 -20 -28 -1 -63 34 -67 147 -131 233 -131 55 0
64 10 36 41 -13 14 -26 17 -59 13 -61 -9 -145 37 -145 78 0 24 21 32 68 23 29
-5 57 -26 129 -98 51 -51 93 -95 93 -98 0 -4 -19 -9 -41 -12 -53 -7 -74 -27
-65 -61 23 -93 211 -188 281 -142 37 25 33 66 -12 118 -113 131 -291 302 -338
324 -60 29 -154 33 -179 8z m484 -383 c0 -21 -36 -31 -75 -20 -42 12 -99 62
-93 81 2 6 17 16 34 21 38 13 39 14 24 34 -7 10 15 -10 48 -44 34 -33 62 -66
62 -72z"/>
<path d="M3720 4060 c6 -11 12 -20 14 -20 2 0 2 9 -1 20 -3 11 -9 20 -15 20
-5 0 -4 -9 2 -20z"/>
<path d="M3674 4062 c4 -3 14 -7 22 -8 9 -1 13 0 10 4 -4 3 -14 7 -22 8 -9 1
-13 0 -10 -4z"/>
<path d="M3748 4059 c10 -14 10 -18 -4 -23 -9 -3 -21 -3 -26 1 -7 3 -8 1 -4
-5 10 -17 56 -15 56 2 0 7 -8 20 -17 27 -16 13 -17 12 -5 -2z"/>
<path d="M4210 4390 c-12 -7 -12 -13 -4 -27 14 -22 46 -24 52 -3 3 8 1 11 -4
7 -4 -4 -13 1 -19 12 -7 15 -14 18 -25 11z"/>
<path d="M4146 4352 c-9 -16 20 -41 42 -35 25 6 27 14 10 31 -13 13 -44 16
-52 4z"/>
<path d="M4383 4353 c-7 -2 -13 -12 -13 -21 0 -13 2 -13 13 3 15 20 39 13 31
-9 -3 -9 1 -13 12 -13 26 3 28 -21 2 -25 -14 -2 -19 -6 -12 -10 7 -5 22 1 35
11 l24 19 -28 26 c-28 26 -40 29 -64 19z"/>
<path d="M5280 4323 c-25 -19 -54 -41 -64 -49 -11 -7 -17 -16 -14 -20 10 -9
162 35 202 60 33 20 36 24 22 36 -14 11 -19 10 -34 -4 -16 -14 -21 -14 -38 -1
-25 19 -22 20 -74 -22z"/>
<path d="M3448 4343 c7 -3 16 -2 19 1 4 3 -2 6 -13 5 -11 0 -14 -3 -6 -6z"/>
<path d="M4092 4321 c-10 -6 -9 -13 7 -32 18 -22 21 -23 37 -7 31 31 -5 64
-44 39z m40 -16 c0 -5 -5 -11 -11 -13 -6 -2 -11 4 -11 13 0 9 5 15 11 13 6 -2
11 -8 11 -13z"/>
<path d="M4320 4305 c-28 -34 32 -93 65 -65 21 17 19 33 -8 58 -28 26 -40 27
-57 7z m55 -36 c4 -11 5 -23 2 -25 -15 -15 -63 38 -52 56 9 15 42 -6 50 -31z"/>
<path d="M5705 4310 c3 -5 14 -10 23 -10 15 0 15 2 2 10 -20 13 -33 13 -25 0z"/>
<path d="M3987 4269 c-10 -6 -63 -28 -118 -48 -55 -21 -101 -40 -104 -43 -3
-2 5 -14 18 -26 l22 -21 69 25 c124 43 176 71 176 93 0 12 -4 21 -9 21 -5 0
-15 2 -23 5 -7 2 -21 0 -31 -6z"/>
<path d="M4278 4258 c7 -7 12 -25 12 -40 0 -15 5 -28 10 -28 11 0 13 39 4 64
-3 9 -13 16 -22 16 -12 0 -13 -3 -4 -12z"/>
<path d="M4241 4244 c0 -11 3 -14 6 -6 3 7 2 16 -1 19 -3 4 -6 -2 -5 -13z"/>
<path d="M5650 4252 c0 -10 49 -57 53 -51 2 2 -9 17 -25 32 -15 15 -28 24 -28
19z"/>
<path d="M4187 4229 c-28 -16 -3 -40 34 -32 22 4 29 2 29 -11 0 -9 5 -16 11
-16 6 0 9 8 7 18 -2 11 -14 18 -33 19 -17 0 -34 2 -39 2 -5 1 -3 8 4 16 15 18
12 18 -13 4z"/>
<path d="M5621 4216 c-10 -12 -8 -13 8 -9 14 4 21 1 21 -9 0 -22 -12 -29 -27
-17 -25 21 -13 -7 13 -32 25 -23 26 -23 15 -2 -12 24 0 40 21 27 7 -4 2 7 -11
24 -26 37 -25 36 -40 18z"/>
<path d="M3350 4174 c0 -5 35 -43 78 -84 l77 -75 -75 80 c-41 44 -76 81 -77
84 -2 2 -3 0 -3 -5z"/>
<path d="M4090 4173 c0 -6 7 -17 16 -24 9 -7 20 -22 24 -34 9 -20 9 -20 9 1 1
11 -10 31 -24 44 -14 13 -25 19 -25 13z"/>
<path d="M4040 4141 c0 -14 51 -51 69 -50 11 0 9 3 -6 9 -12 5 -27 18 -33 29
-11 21 -30 29 -30 12z"/>
<path d="M4005 4122 c-5 -15 -11 -19 -19 -13 -16 14 -81 -2 -81 -19 0 -8 9
-16 20 -17 11 -2 14 0 8 3 -21 9 -15 21 12 26 17 4 31 -2 46 -18 25 -27 49
-33 28 -8 -11 14 -8 15 27 10 37 -6 38 -5 7 4 -20 7 -33 18 -36 33 l-4 22 -8
-23z"/>
<path d="M5315 4110 c-10 -11 -16 -29 -13 -43 4 -20 1 -23 -18 -19 -16 3 -34
-7 -65 -37 -39 -37 -42 -42 -31 -66 17 -36 16 -37 -15 -22 -28 14 -53 13 -53
-4 0 -5 23 -20 51 -35 45 -23 53 -24 66 -11 13 13 12 20 -5 61 -24 53 -15 59
21 16 14 -16 30 -30 36 -30 16 0 44 47 44 74 0 18 4 22 22 18 25 -4 55 29 55
60 0 27 -19 22 -31 -8 -9 -26 -10 -26 -29 -9 -26 23 -26 45 0 45 11 0 20 7 20
15 0 21 -34 19 -55 -5z m-15 -132 c0 -21 0 -21 -25 2 -27 26 -24 46 6 30 10
-6 19 -20 19 -32z"/>
<path d="M5576 4112 c-2 -4 7 -12 20 -19 26 -12 32 -5 12 15 -14 14 -25 15
-32 4z"/>
<path d="M5541 4072 c-6 -12 -5 -23 4 -35 17 -24 28 -21 15 4 -13 24 -5 38 12
21 19 -19 29 -14 16 8 -16 25 -34 26 -47 2z"/>
<path d="M3968 4073 c6 -2 12 -12 12 -21 0 -12 3 -13 11 -5 14 14 3 33 -19 32
-11 0 -12 -3 -4 -6z"/>
<path d="M5483 4000 c-28 -35 -28 -42 -3 -65 16 -14 20 -15 20 -4 0 8 -5 20
-12 27 -6 6 -9 15 -5 19 4 4 13 1 19 -5 7 -7 17 -12 22 -12 6 0 5 5 -2 12 -7
7 -12 21 -12 32 0 18 1 19 20 1 21 -19 28 -7 8 13 -18 18 -31 14 -55 -18z"/>
<path d="M5403 3944 c-7 -18 16 -64 34 -71 17 -7 43 15 43 34 0 17 -39 52 -58
53 -7 0 -15 -7 -19 -16z m27 -14 c0 -5 -2 -10 -4 -10 -3 0 -8 5 -11 10 -3 6
-1 10 4 10 6 0 11 -4 11 -10z m30 -20 c0 -5 -5 -10 -11 -10 -5 0 -7 5 -4 10 3
6 8 10 11 10 2 0 4 -4 4 -10z"/>
<path d="M5077 3882 c-10 -10 -17 -26 -17 -35 0 -25 29 -21 40 6 7 18 9 14 9
-24 1 -25 4 -48 7 -52 8 -8 74 42 74 55 0 6 -11 7 -25 4 -19 -5 -23 -3 -19 8
8 21 -14 56 -35 56 -10 0 -25 -8 -34 -18z"/>
<path d="M5356 3861 c-3 -5 -16 -7 -29 -4 -21 5 -20 4 7 -25 16 -18 26 -35 22
-39 -4 -5 -16 2 -26 15 -22 26 -40 29 -40 4 0 -9 -9 -23 -20 -30 -11 -7 -20
-22 -20 -33 0 -12 8 -23 20 -26 11 -3 20 -9 20 -14 0 -15 27 -10 40 6 11 13 9
21 -9 45 -23 32 -20 40 6 14 14 -14 17 -13 34 5 16 17 17 24 7 40 -16 27 0 41
18 17 7 -11 17 -17 21 -13 7 7 -25 47 -38 47 -4 0 -10 -4 -13 -9z m-58 -109
c2 -7 -3 -12 -12 -12 -9 0 -16 7 -16 16 0 17 22 14 28 -4z"/>
<path d="M5006 3819 c-21 -31 -20 -42 3 -34 13 4 23 -2 35 -20 9 -14 23 -25
31 -25 30 0 26 24 -12 62 l-40 40 -17 -23z"/>
<path d="M4889 3732 c-67 -33 -41 -126 35 -126 21 0 43 7 53 17 22 22 11 32
-19 17 -20 -10 -20 -8 5 12 31 27 34 49 10 70 -30 25 -49 27 -84 10z m71 -32
c6 -11 9 -20 7 -20 -2 0 -12 9 -22 20 -10 11 -13 20 -7 20 6 0 16 -9 22 -20z
m-75 -9 c-4 -13 1 -27 14 -40 25 -25 16 -28 -11 -4 -18 16 -24 44 -11 56 11
12 15 7 8 -12z m45 -22 c0 -6 -4 -7 -10 -4 -5 3 -10 11 -10 16 0 6 5 7 10 4 6
-3 10 -11 10 -16z"/>
<path d="M5200 3725 c-6 -8 -9 -19 -6 -24 4 -5 -6 -11 -21 -13 -32 -3 -43 -37
-19 -57 18 -15 56 2 56 26 0 13 -2 14 -17 2 -16 -13 -17 -12 -5 2 8 11 21 15
35 11 19 -5 20 -4 9 11 -20 24 -10 44 11 22 24 -24 35 -10 12 15 -21 24 -38
25 -55 5z"/>
<path d="M4751 3661 c-11 -7 -11 -15 -3 -41 l12 -32 -25 16 c-25 17 -57 21
-69 9 -8 -9 64 -83 81 -83 16 0 17 12 1 29 -11 11 -9 11 9 2 32 -16 46 -14 40
8 -4 17 -2 18 14 8 13 -8 22 -8 29 -1 15 15 -70 96 -89 85z"/>
<path d="M5060 3642 c0 -5 13 -21 29 -36 24 -24 32 -26 50 -17 12 7 21 16 21
21 0 13 -13 13 -26 0 -7 -7 -18 -2 -34 15 -24 25 -40 32 -40 17z"/>
<path d="M4591 3579 l-23 -9 33 -39 c35 -40 77 -56 65 -25 -4 10 1 25 11 36
17 19 17 20 -2 34 -21 16 -49 17 -84 3z m54 -19 c3 -5 -1 -10 -9 -10 -9 0 -16
5 -16 10 0 6 4 10 9 10 6 0 13 -4 16 -10z"/>
<path d="M4982 3568 l-33 -21 22 -23 c24 -26 40 -25 19 1 -19 23 -3 31 20 10
26 -24 39 -11 15 15 -16 17 -16 20 -2 20 9 0 19 -4 22 -10 3 -5 13 -10 22 -10
14 0 14 3 -2 20 -22 25 -41 24 -83 -2z"/>
<path d="M4512 3548 c-37 -10 -34 -23 16 -72 30 -28 56 -29 45 0 -5 12 -1 13
21 3 34 -16 47 -3 20 19 -12 9 -24 24 -27 33 -7 21 -34 28 -75 17z m38 -28 c0
-5 -2 -10 -4 -10 -3 0 -8 5 -11 10 -3 6 -1 10 4 10 6 0 11 -4 11 -10z"/>
<path d="M4896 3515 c-10 -8 -24 -16 -30 -18 -13 -5 21 -47 38 -47 6 0 5 5 -2
12 -7 7 -12 19 -12 27 0 11 4 10 20 -4 23 -21 39 -13 20 10 -10 12 -10 15 3
15 9 0 19 -4 22 -10 12 -20 26 -10 15 10 -12 23 -47 26 -74 5z"/>
<path d="M4387 3506 c-8 -9 -24 -12 -36 -9 -11 3 -29 2 -38 -3 -10 -4 -31 -8
-48 -8 -22 -1 -30 -6 -29 -18 1 -10 -4 -18 -12 -18 -8 0 -14 7 -14 15 0 18
-26 20 -36 3 -4 -6 8 -25 29 -45 37 -33 61 -41 72 -23 3 6 15 6 30 0 17 -7 28
-5 37 4 8 8 21 10 33 6 24 -9 45 -2 45 14 0 8 12 11 34 8 51 -6 56 15 13 55
-40 36 -58 40 -80 19z m58 -36 c10 -11 16 -20 13 -20 -3 0 -13 9 -23 20 -10
11 -16 20 -13 20 3 0 13 -9 23 -20z m-75 -15 c7 -8 8 -15 2 -15 -5 0 -15 7
-22 15 -7 8 -8 15 -2 15 5 0 15 -7 22 -15z"/>
<path d="M4810 3466 c0 -32 2 -34 35 -33 19 1 35 4 35 7 0 8 -54 60 -63 60 -4
0 -7 -15 -7 -34z"/>
<path d="M4735 3457 c-11 -9 -14 -16 -7 -21 6 -3 13 -2 17 4 12 20 25 10 25
-20 0 -34 16 -39 46 -14 18 15 18 15 -3 9 -18 -5 -23 -2 -23 12 0 18 -17 43
-30 43 -3 0 -14 -6 -25 -13z"/>
<path d="M4590 3398 c0 -10 4 -18 9 -18 5 0 12 -8 15 -17 5 -13 -1 -11 -20 7
-18 17 -28 21 -31 13 -3 -7 -13 -13 -23 -13 -10 0 -22 -5 -25 -10 -4 -6 -12
-4 -22 5 -9 10 -23 13 -37 9 -32 -10 -32 -12 3 -47 19 -18 35 -27 37 -21 3 6
16 9 29 6 14 -2 36 -1 51 2 23 6 24 9 12 24 -12 15 -11 16 4 4 14 -11 24 -11
55 -1 21 6 44 13 51 15 22 6 13 34 -14 44 -29 12 -59 -4 -47 -24 8 -12 -28 13
-39 29 -4 6 -8 2 -8 -7z m95 -18 c3 -5 -1 -10 -9 -10 -9 0 -16 5 -16 10 0 6 4
10 9 10 6 0 13 -4 16 -10z"/>
<path d="M4725 3370 c3 -5 8 -10 11 -10 2 0 4 5 4 10 0 6 -5 10 -11 10 -5 0
-7 -4 -4 -10z"/>
<path d="M4356 3344 c-9 -22 -8 -24 10 -17 8 3 25 -4 39 -17 36 -34 44 -15 10
20 -32 33 -50 38 -59 14z"/>
<path d="M4310 3320 c46 -38 62 -38 25 0 -16 17 -36 30 -44 30 -9 0 -2 -12 19
-30z"/>
</g>
</svg>
