<?xml version="1.0" standalone="no"?>
<!DOCTYPE svg PUBLIC "-//W3C//DTD SVG 20010904//EN"
 "http://www.w3.org/TR/2001/REC-SVG-20010904/DTD/svg10.dtd">
<svg version="1.0" xmlns="http://www.w3.org/2000/svg"
 width="1024.000000pt" height="1024.000000pt" viewBox="0 0 1024.000000 1024.000000"
 preserveAspectRatio="xMidYMid meet">

<g transform="translate(0.000000,1024.000000) scale(0.100000,-0.100000)"
fill="#000000" stroke="none">
<path d="M4670 8944 c-85 -8 -180 -18 -210 -23 -107 -18 -402 -81 -418 -90 -9
-4 -50 -16 -91 -26 -41 -10 -97 -27 -125 -38 -28 -10 -62 -21 -75 -24 -13 -3
-44 -17 -70 -31 -74 -40 -111 -58 -196 -98 -328 -153 -690 -437 -976 -764 -70
-80 -252 -329 -289 -395 -12 -22 -39 -69 -60 -105 -108 -185 -201 -399 -275
-630 -26 -80 -55 -171 -65 -202 -60 -185 -100 -478 -100 -734 0 -453 120 -943
331 -1353 298 -578 839 -1114 1419 -1404 511 -255 911 -353 1435 -351 276 1
390 15 680 79 58 13 75 18 180 48 46 14 289 96 395 135 76 27 359 174 475 247
330 206 687 549 917 880 184 266 331 552 408 795 18 58 36 114 40 125 28 75
70 256 90 385 6 36 16 97 23 135 22 134 15 649 -13 800 -5 28 -16 95 -26 150
-9 55 -20 107 -24 115 -4 8 -15 42 -25 75 -27 98 -110 322 -162 440 -68 151
-106 229 -139 282 -19 28 -34 54 -34 56 0 12 -177 267 -226 325 -257 306 -245
295 -590 576 -18 14 -35 26 -38 26 -4 0 -12 5 -19 10 -88 74 -325 213 -477
281 -58 25 -115 51 -125 57 -11 5 -40 18 -65 28 -25 9 -68 28 -97 41 -28 12
-60 23 -71 23 -26 0 -118 28 -171 52 -24 11 -62 21 -85 23 -38 4 -245 42 -346
63 -25 6 -153 13 -285 17 -132 3 -247 8 -255 9 -8 2 -85 -3 -170 -10z m660
-202 c69 -11 161 -25 205 -31 44 -7 118 -23 165 -37 47 -14 130 -39 185 -55
203 -59 530 -216 734 -352 330 -221 645 -531 851 -837 129 -192 254 -449 338
-691 70 -202 141 -525 142 -642 l0 -38 -31 16 c-16 9 -33 23 -36 31 -3 7 -13
14 -23 14 -10 0 -23 7 -30 15 -23 28 -54 17 -87 -29 -71 -100 -116 -99 -166 2
-42 85 -68 97 -166 75 -85 -19 -117 -35 -164 -79 -26 -25 -36 -42 -32 -53 21
-54 29 -103 19 -119 -15 -23 -76 -27 -114 -7 -18 9 -40 13 -52 10 -23 -8 -77
-64 -78 -82 0 -6 -3 -13 -7 -15 -5 -1 -21 -20 -37 -41 -22 -30 -30 -53 -34
-103 -5 -73 -3 -78 75 -136 29 -21 53 -43 53 -48 0 -6 -9 -18 -21 -28 -60 -50
-62 -52 -52 -64 15 -20 53 -132 53 -156 0 -22 -18 -31 -67 -35 -12 0 -20 -4
-17 -8 4 -7 -86 -49 -105 -49 -6 0 -11 5 -11 10 0 6 -5 10 -11 10 -23 0 -65
63 -54 80 3 6 1 10 -5 10 -6 0 -15 10 -21 23 -10 22 -99 87 -119 87 -5 0 -10
4 -10 9 0 5 -13 12 -30 16 -16 4 -30 11 -30 16 0 6 -4 8 -9 4 -5 -3 -12 -1
-15 4 -15 24 -184 35 -302 21 -56 -7 -97 -19 -135 -39 -30 -16 -99 -44 -154
-62 -55 -17 -105 -34 -111 -36 -14 -5 -64 96 -64 128 0 12 -7 30 -15 39 -14
15 -7 20 78 52 50 20 117 43 148 52 131 37 291 105 354 150 108 78 207 228
235 356 12 55 9 187 -4 227 -7 19 0 25 71 58 113 52 148 80 202 160 92 137
152 320 153 465 1 103 -32 235 -69 274 -13 14 -21 31 -17 37 4 7 1 10 -7 7
-13 -4 -39 13 -39 26 0 11 -115 116 -128 116 -7 0 -10 5 -7 10 3 6 -1 10 -9
10 -9 0 -16 4 -16 9 0 5 -12 16 -27 24 -16 7 -58 30 -94 49 -37 20 -82 39
-100 43 -48 11 -189 13 -189 2 0 -4 -10 -5 -21 -2 -13 5 -19 3 -15 -3 3 -5 -5
-13 -18 -16 -13 -3 -32 -9 -43 -12 -15 -5 -16 -4 -3 6 13 10 13 11 -2 6 -10
-3 -24 -9 -32 -12 -10 -4 -19 10 -31 48 -30 91 -81 182 -134 238 -29 30 -59
65 -67 78 -8 12 -22 22 -32 22 -15 0 -15 -2 -2 -10 8 -5 10 -10 5 -10 -6 0
-20 6 -31 14 -47 33 -158 60 -244 59 -78 0 -102 -6 -295 -71 -184 -62 -375
-128 -595 -206 -36 -13 -116 -42 -179 -66 -63 -23 -119 -43 -125 -44 -6 -1
-16 -5 -22 -9 -7 -4 -23 20 -43 65 -17 39 -30 72 -29 74 2 1 21 16 43 34 122
97 183 307 126 435 -23 53 -112 163 -144 180 -49 25 -135 55 -173 61 -163 25
-364 -98 -425 -258 -32 -85 -32 -198 0 -280 46 -117 170 -213 290 -225 31 -3
61 -10 67 -14 11 -9 69 -148 63 -153 -2 -1 -35 -12 -74 -24 -38 -12 -135 -44
-215 -73 -80 -28 -206 -73 -280 -99 -371 -132 -468 -179 -542 -259 -112 -122
-161 -230 -174 -383 -5 -52 0 -80 25 -162 17 -54 31 -104 31 -111 0 -13 -61
-31 -92 -27 -10 1 -18 -2 -18 -7 0 -5 -7 -12 -16 -15 -8 -3 -12 -2 -9 4 3 6
-1 7 -9 4 -9 -3 -14 -9 -11 -14 6 -10 -44 -32 -57 -24 -7 4 -8 2 -4 -4 6 -10
-8 -18 -16 -10 -2 2 -17 -7 -34 -19 -36 -26 -128 -203 -171 -328 -36 -108 -39
-268 -5 -359 33 -89 79 -160 156 -238 89 -91 162 -137 294 -188 127 -49 204
-54 317 -21 38 12 77 21 85 21 8 0 26 -21 39 -46 42 -78 138 -169 222 -209 96
-45 204 -68 289 -62 62 5 328 88 558 173 51 19 96 32 101 29 17 -10 72 -178
62 -188 -7 -7 -12 0 -16 19 -10 47 -38 120 -42 108 -2 -5 5 -35 16 -65 18 -53
18 -56 0 -78 -19 -24 -66 -41 -112 -41 -16 0 -26 -4 -22 -10 3 -5 -3 -10 -13
-10 -11 0 -35 -2 -53 -5 -30 -4 -31 -4 -9 4 18 7 10 8 -30 4 -71 -7 -126 -26
-123 -41 3 -11 -3 -14 -37 -16 -8 -1 -15 -8 -15 -16 0 -8 -8 -14 -18 -14 -9 1
-14 -2 -11 -7 5 -9 -16 -13 -43 -10 -7 1 -13 -5 -13 -14 0 -10 -9 -19 -20 -22
-11 -3 -20 -8 -20 -12 0 -4 -23 -32 -50 -62 -94 -102 -130 -204 -130 -373 0
-78 -3 -96 -20 -113 -17 -19 -95 -43 -139 -43 -23 0 -71 44 -71 65 0 9 16 46
36 81 40 71 39 83 -8 134 -64 70 -139 118 -212 139 -37 10 -40 9 -70 -23 -43
-46 -71 -59 -96 -46 -27 15 -43 47 -36 76 9 35 -8 59 -59 84 -44 22 -46 22
-128 5 -88 -18 -205 -69 -221 -97 -8 -13 -5 -29 12 -63 30 -61 28 -81 -7 -93
-24 -8 -38 -6 -77 14 -76 36 -98 32 -155 -28 -27 -29 -49 -61 -49 -70 0 -10
-9 -27 -19 -37 -11 -11 -21 -32 -23 -48 l-3 -28 -17 30 c-9 17 -43 66 -75 110
-71 96 -91 130 -177 303 -84 167 -150 336 -181 460 -13 53 -27 111 -31 127 -4
17 -9 35 -10 40 -1 6 -3 12 -4 15 -1 3 -3 14 -5 25 -11 66 -29 124 -37 119 -4
-3 -8 1 -9 8 -1 7 -4 2 -8 -11 -5 -18 -9 -6 -20 49 -14 76 -11 91 13 71 16
-13 16 5 0 137 -9 76 -25 47 -21 -38 2 -44 0 -80 -5 -80 -10 0 -11 383 -1 431
7 33 7 33 14 9 6 -22 7 -20 8 13 1 28 -3 37 -15 37 -15 0 -16 10 -9 82 3 44
11 91 15 104 5 12 25 95 45 184 51 229 127 445 242 690 230 488 687 990 1170
1284 288 175 635 304 998 371 213 40 269 44 555 40 208 -2 292 -7 390 -23z
m-1144 -441 c51 -23 120 -84 141 -125 20 -39 12 -140 -17 -195 -65 -128 -170
-170 -286 -115 -81 39 -154 142 -154 218 0 52 25 122 60 166 52 65 172 89 256
51z m1557 -479 c78 -36 134 -90 166 -157 13 -28 102 -279 196 -560 95 -280
191 -559 213 -620 79 -219 89 -339 37 -452 -24 -53 -87 -129 -138 -165 -30
-21 -274 -113 -597 -223 -102 -34 -273 -95 -380 -133 -463 -167 -1280 -440
-1340 -448 -25 -3 -74 -1 -110 6 -184 33 -244 103 -344 397 -180 527 -232 678
-295 857 -95 264 -115 344 -107 424 7 79 32 137 95 216 44 55 61 68 140 104
49 23 94 42 100 42 6 0 59 18 119 39 253 93 812 290 867 305 33 10 123 42 200
71 167 64 329 122 605 217 113 39 234 81 270 94 94 35 212 29 303 -14z m715
-396 c17 -9 32 -19 34 -23 1 -5 34 -24 72 -42 97 -47 196 -146 225 -226 31
-82 26 -217 -11 -322 -30 -84 -95 -193 -102 -172 -25 70 -80 221 -92 249 l-15
35 4 -32 c2 -18 0 -33 -5 -33 -4 0 -7 -3 -6 -8 2 -4 -21 -32 -49 -62 -29 -30
-53 -58 -53 -62 0 -5 -10 -8 -21 -8 -17 0 -20 5 -16 21 4 14 1 19 -7 16 -13
-5 -22 14 -96 223 -28 80 -74 204 -101 276 -27 72 -49 136 -49 143 0 12 30 27
85 42 44 12 168 3 203 -15z m-3463 -1160 c9 -14 34 -82 56 -153 21 -70 57
-180 79 -243 l40 -115 -25 -9 c-14 -6 -25 -13 -25 -18 0 -4 -8 -8 -17 -8 -10
0 -27 -7 -37 -15 -11 -8 -31 -15 -45 -16 -14 0 -20 -3 -13 -6 18 -7 15 -20 -6
-25 -21 -6 -39 11 -48 47 -3 14 -8 24 -11 21 -7 -6 41 -176 77 -275 17 -46 29
-87 28 -92 -2 -4 -25 3 -53 17 -27 13 -57 24 -65 24 -34 0 -157 69 -189 105
-41 47 -87 148 -107 232 -24 104 10 223 95 336 30 40 38 45 47 33 8 -11 9 -2
6 38 -3 37 0 56 9 62 16 11 171 81 181 83 4 1 15 -10 23 -23z m4511 -251 c31
-71 43 -78 145 -92 44 -5 48 -4 87 37 47 49 55 49 141 -1 l53 -31 -36 -37
c-20 -20 -36 -46 -36 -56 0 -11 21 -47 45 -79 40 -53 45 -65 44 -110 -2 -87
-7 -96 -79 -122 -36 -13 -66 -24 -67 -24 -1 0 -5 17 -9 38 -12 69 -68 138
-136 166 -52 22 -153 20 -205 -3 -57 -27 -120 -94 -134 -145 -11 -40 -8 -155
5 -187 7 -17 -29 -38 -121 -70 l-53 -18 -19 44 c-32 72 -33 82 -16 171 l16 87
-28 29 c-15 16 -40 36 -55 44 -16 8 -28 18 -28 23 0 5 16 34 35 66 19 32 36
62 38 69 2 7 24 1 60 -18 66 -33 70 -31 152 48 50 48 56 73 30 145 -13 38 -13
42 3 48 9 3 37 14 62 24 70 28 75 26 106 -46z m-4309 -367 c-3 -8 -6 -5 -6 6
-1 11 2 17 5 13 3 -3 4 -12 1 -19z m4413 -58 c26 -14 60 -72 60 -102 0 -28 -9
-33 -120 -67 -105 -32 -104 -32 -114 20 -11 56 12 112 58 140 34 21 87 25 116
9z m-2014 -207 c13 -37 23 -73 24 -78 0 -6 -21 -17 -47 -23 -26 -7 -74 -24
-108 -37 -33 -13 -123 -48 -200 -78 -193 -76 -477 -169 -486 -160 -9 10 -69
128 -69 137 0 4 17 14 38 23 116 49 814 293 821 287 2 -2 14 -34 27 -71z
m2318 -12 c8 -12 -35 -194 -85 -361 -41 -135 -67 -203 -140 -358 -21 -45 -39
-85 -39 -87 0 -3 -17 -30 -37 -61 -31 -47 -38 -53 -45 -37 -6 13 -7 11 -3 -8
11 -61 -288 -488 -352 -501 -10 -2 -18 -10 -18 -18 0 -17 -10 -23 -27 -18 -7
3 -4 12 10 26 44 44 21 41 -25 -3 -26 -25 -50 -45 -55 -45 -4 0 -8 -7 -8 -15
0 -8 -3 -15 -8 -15 -4 0 -57 -48 -117 -106 -61 -59 -155 -141 -210 -184 -106
-81 -396 -280 -410 -280 -5 0 -54 -22 -109 -49 -168 -83 -253 -120 -293 -130
-21 -5 -76 -21 -123 -36 -120 -38 -238 -66 -287 -69 -23 -1 -46 -5 -49 -9 -4
-4 -20 -7 -35 -7 -18 0 -28 6 -32 20 -5 21 -37 28 -37 9 0 -6 6 -9 14 -6 8 3
16 -2 19 -14 6 -24 -13 -34 -49 -25 -17 5 -23 3 -19 -4 3 -5 5 -10 3 -10 -2 0
-40 -6 -86 -14 -46 -7 -123 -14 -171 -15 -73 -2 -90 1 -95 14 -3 9 -10 13 -16
10 -5 -3 -10 -1 -10 5 0 6 -11 8 -24 6 -14 -2 -27 -1 -29 2 -2 4 -2 2 -1 -5 5
-21 -14 -24 -21 -3 -3 11 -13 20 -22 20 -12 0 -13 3 -4 14 15 18 -5 34 -22 17
-9 -9 -8 -17 2 -33 11 -18 10 -23 -5 -37 -17 -15 -17 -15 -5 1 16 21 -1 33
-28 18 -11 -5 -29 -10 -41 -10 -12 0 -18 -4 -15 -10 7 -12 4 -12 -52 -1 -27 5
-43 5 -43 -1 0 -6 -12 -7 -27 -3 -16 4 -35 8 -43 10 -34 6 -151 25 -240 39
-53 9 -131 25 -174 36 -44 11 -92 20 -108 20 -15 0 -28 4 -28 8 0 11 190 86
410 162 96 33 220 78 275 100 55 21 159 57 230 79 72 22 195 63 275 92 80 28
201 71 270 96 69 24 143 50 165 58 22 8 73 28 114 45 41 16 77 30 82 30 4 0
29 10 56 22 26 12 51 21 55 20 9 -2 146 52 155 61 3 4 1 7 -6 7 -7 0 -9 6 -6
13 4 6 1 5 -7 -4 -7 -9 -19 -14 -26 -12 -9 4 -8 12 5 33 16 27 16 30 0 48 -22
24 -21 29 6 36 38 9 100 37 94 42 -2 2 -69 -19 -148 -47 -79 -28 -200 -71
-269 -95 -69 -25 -161 -59 -205 -76 -97 -37 -490 -173 -675 -234 -74 -24 -200
-69 -280 -98 -80 -30 -182 -66 -228 -80 -45 -14 -108 -36 -140 -50 -139 -60
-377 -149 -413 -153 -26 -4 -54 0 -82 12 -102 44 -215 99 -257 124 -25 16 -74
45 -110 65 -36 20 -94 54 -129 76 -72 46 -82 49 -55 18 l19 -21 -29 18 c-16
11 -24 21 -17 23 21 7 11 20 -14 18 -16 0 -23 -6 -20 -14 3 -7 0 -10 -5 -7 -6
3 -10 11 -10 17 0 11 -29 37 -43 38 -5 0 -5 -5 -1 -12 4 -7 3 -8 -5 -4 -6 4
-9 11 -6 16 3 4 -7 15 -21 25 -14 9 -23 19 -21 22 6 6 46 -15 66 -34 23 -23
61 -46 67 -40 7 7 -105 87 -125 88 -9 1 -24 0 -34 -1 -22 -2 -70 28 -63 39 6
9 24 16 276 106 102 36 250 91 330 122 80 30 282 102 450 158 306 103 670 229
940 325 80 29 163 58 185 65 22 7 173 61 335 120 162 59 457 161 655 227 198
66 419 142 490 169 72 26 207 75 300 107 94 33 222 79 285 102 63 23 203 72
310 109 107 38 240 86 295 108 109 44 121 48 129 34z m-1444 -107 c109 -52
188 -149 146 -180 -19 -13 -144 -53 -250 -79 -38 -10 -101 -32 -140 -51 -95
-45 -203 -84 -210 -77 -3 4 -6 14 -6 24 0 9 -25 77 -55 150 -41 100 -52 135
-42 141 12 8 196 72 272 95 22 7 81 11 130 10 76 -2 100 -7 155 -33z m-674
-134 c28 -89 28 -88 -23 -120 -26 -17 -83 -44 -128 -61 -137 -53 -182 -80
-168 -102 3 -5 9 -3 14 4 7 10 11 11 17 2 4 -6 14 -12 22 -14 20 -5 110 21
110 32 0 4 10 11 23 15 12 3 53 22 90 40 37 19 72 34 76 34 5 0 11 -18 15 -41
4 -23 13 -54 22 -70 12 -23 12 -30 2 -33 -7 -2 -39 -11 -72 -21 -49 -14 -60
-15 -68 -3 -8 10 -9 9 -5 -3 4 -13 -10 -23 -61 -42 -120 -47 -365 -126 -374
-121 -4 3 -8 1 -8 -5 0 -6 -19 -16 -42 -22 -24 -7 -47 -16 -53 -19 -5 -4 -86
-33 -179 -65 -135 -46 -170 -55 -177 -44 -5 9 1 19 21 32 37 23 38 37 5 37
-14 0 -24 -5 -22 -11 5 -26 -21 -17 -33 11 -16 38 -9 46 28 31 16 -7 41 -9 56
-5 22 5 28 3 33 -14 4 -17 9 -19 33 -11 30 11 66 16 122 18 36 1 37 2 28 26
-8 21 -5 27 18 44 16 11 53 22 87 26 77 8 155 34 155 50 0 7 6 16 13 19 6 3
-1 4 -18 1 -112 -16 -136 -16 -152 -3 -23 19 -139 14 -258 -13 -172 -38 -176
-38 -218 12 -21 23 -37 46 -37 51 0 27 183 105 475 203 108 36 229 77 415 141
85 29 166 52 180 51 19 -2 28 -10 36 -37z m-1473 -317 c-7 -2 -21 -2 -30 0
-10 3 -4 5 12 5 17 0 24 -2 18 -5z m264 -160 c11 -32 37 -98 56 -148 19 -49
32 -94 28 -98 -21 -22 -211 -76 -276 -79 -70 -2 -128 -24 -105 -38 16 -10 7
-15 -103 -55 -50 -18 -100 -36 -109 -40 -14 -5 -18 2 -23 39 -11 72 3 150 41
226 52 104 119 149 285 194 52 13 110 32 129 40 19 8 40 15 46 16 6 0 20 -26
31 -57z m-1457 -217 c26 -95 66 -126 162 -126 31 0 42 6 74 45 41 50 53 54 79
25 10 -11 38 -31 61 -45 24 -14 44 -31 44 -36 0 -6 -18 -31 -40 -56 -46 -53
-49 -70 -16 -121 23 -36 52 -111 44 -116 -18 -13 -154 -53 -156 -45 -2 5 -18
30 -35 56 -117 171 -370 131 -446 -71 -11 -30 -22 -79 -23 -108 -3 -48 -6 -55
-38 -75 -19 -12 -39 -22 -45 -22 -5 -1 -23 17 -38 39 -15 22 -47 53 -71 71
l-44 31 20 45 c11 24 22 68 25 97 5 49 3 55 -28 90 -32 37 -32 39 -17 65 12
22 49 88 55 99 0 2 22 -12 47 -32 67 -51 80 -53 118 -16 18 16 50 38 70 48 43
20 48 46 23 128 -8 27 -15 50 -15 51 0 0 21 4 48 8 26 4 61 12 77 19 38 16 49
8 65 -48z m57 -456 c32 -19 51 -59 39 -79 -3 -5 -43 -22 -89 -36 -45 -15 -86
-31 -92 -36 -21 -20 -35 -8 -35 31 0 53 23 96 63 120 41 25 73 25 114 0z m540
-816 c-3 -3 -12 -4 -19 -1 -8 3 -5 6 6 6 11 1 17 -2 13 -5z m1223 -209 c10
-12 10 -15 -2 -15 -8 0 -15 7 -15 15 0 8 1 15 2 15 2 0 8 -7 15 -15z m-153
-11 c-3 -3 -12 -4 -19 -1 -8 3 -5 6 6 6 11 1 17 -2 13 -5z"/>
<path d="M7317 6773 c-4 -3 -7 -27 -7 -53 0 -43 -4 -51 -51 -98 -48 -48 -51
-55 -46 -89 9 -51 27 -67 69 -59 65 13 72 26 76 136 3 55 8 100 12 100 14 0
73 -46 84 -65 41 -78 57 -96 79 -89 60 18 86 81 50 122 -14 15 -86 43 -123 47
-3 0 -24 13 -47 28 -41 26 -82 35 -96 20z"/>
<path d="M1930 5885 c0 -8 4 -15 10 -15 5 0 7 7 4 15 -4 8 -8 15 -10 15 -2 0
-4 -7 -4 -15z"/>
<path d="M5760 5480 c0 -5 5 -10 11 -10 5 0 7 5 4 10 -3 6 -8 10 -11 10 -2 0
-4 -4 -4 -10z"/>
<path d="M1951 5470 c0 -8 4 -24 9 -35 5 -13 9 -14 9 -5 0 8 -4 24 -9 35 -5
13 -9 14 -9 5z"/>
<path d="M2533 5029 c-38 -14 -56 -53 -49 -103 7 -42 5 -47 -39 -95 -50 -57
-55 -79 -25 -106 16 -14 29 -16 73 -11 53 7 53 7 85 -34 24 -29 40 -40 60 -40
40 0 52 17 52 74 0 44 4 53 40 88 36 34 41 43 39 80 -3 53 -8 70 -21 62 -5 -3
-18 3 -29 14 -21 23 -119 75 -127 68 -2 -3 -12 -1 -21 3 -9 5 -26 5 -38 0z"/>
<path d="M5187 7265 c-83 -23 -158 -68 -227 -135 -115 -113 -160 -220 -160
-385 0 -277 184 -486 463 -525 131 -19 306 41 414 142 102 96 156 201 183 361
38 219 -151 478 -395 542 -71 18 -212 18 -278 0z m288 -174 c103 -46 195 -169
210 -282 8 -55 -2 -132 -16 -123 -13 8 -11 68 3 82 9 9 9 12 -1 12 -7 0 -9 5
-5 12 4 7 3 8 -4 4 -7 -4 -12 -16 -12 -26 0 -35 -37 -105 -84 -156 -63 -71
-131 -112 -205 -125 -33 -6 -58 -15 -55 -20 3 -5 -2 -9 -10 -9 -9 0 -13 6 -10
14 4 9 -8 15 -42 20 -88 12 -152 65 -216 180 -22 40 -28 46 -28 27 0 -19 -3
-21 -14 -12 -23 19 -28 93 -11 166 41 180 164 269 360 262 66 -2 103 -9 140
-26z m-459 -439 c0 -10 -5 -19 -12 -19 -6 0 -9 9 -6 19 2 10 7 18 11 18 4 0 7
-8 7 -18z m143 -148 c14 -12 -19 -1 -35 12 -18 14 -18 14 6 3 14 -6 27 -13 29
-15z m441 1 c-14 -16 -40 -20 -40 -6 0 10 17 19 39 20 11 1 11 -2 1 -14z m-41
-41 c-18 -22 -88 -56 -102 -50 -7 2 -4 5 6 5 9 1 16 4 16 9 -4 24 4 32 32 32
16 0 28 4 25 8 -2 4 4 9 15 9 17 2 18 -1 8 -13z m-206 -1 c-7 -2 -19 -2 -25 0
-7 3 -2 5 12 5 14 0 19 -2 13 -5z"/>
<path d="M3907 6826 c-90 -26 -159 -68 -233 -140 -111 -110 -156 -220 -157
-381 -1 -145 52 -271 156 -377 154 -157 402 -191 614 -84 150 75 230 184 274
373 20 85 21 106 12 169 -18 122 -94 257 -192 337 -25 21 -79 54 -119 74 -71
35 -79 37 -190 40 -77 1 -133 -2 -165 -11z m256 -166 c33 -12 82 -41 110 -64
194 -158 175 -470 -36 -603 -211 -133 -522 15 -555 264 -16 124 20 243 99 322
106 105 242 134 382 81z"/>
<path d="M4276 6173 c-21 -24 -37 -46 -34 -48 3 -3 22 15 43 40 48 59 42 64
-9 8z"/>
<path d="M3993 6043 c15 -2 37 -2 50 0 12 2 0 4 -28 4 -27 0 -38 -2 -22 -4z"/>
<path d="M5951 6294 c-34 -29 -57 -89 -47 -127 10 -41 54 -86 92 -93 47 -9 81
2 115 36 25 24 29 36 29 82 0 60 -16 90 -60 113 -45 23 -94 19 -129 -11z"/>
<path d="M3768 5564 c-34 -18 -60 -67 -62 -114 -2 -72 64 -130 147 -130 63 0
116 45 123 105 6 49 -28 124 -66 142 -34 17 -109 16 -142 -3z"/>
<path d="M7125 4888 c-104 -35 -113 -39 -150 -74 -31 -31 -35 -41 -35 -84 0
-38 6 -55 27 -81 l27 -32 76 6 c98 8 178 32 213 65 82 78 40 224 -65 221 -18
0 -60 -10 -93 -21z"/>
<path d="M7415 4455 c-71 -29 -197 -78 -278 -110 -82 -31 -146 -59 -144 -61 2
-2 24 3 48 12 24 9 49 17 54 18 6 1 16 5 23 9 6 5 17 5 22 2 6 -3 10 -2 10 2
0 16 62 34 77 22 10 -9 13 -8 13 4 0 10 6 14 15 11 8 -4 15 -2 15 3 0 17 49
13 59 -5 15 -24 14 4 -1 31 -10 20 -10 21 5 8 10 -7 17 -9 17 -4 0 6 11 8 24
6 13 -3 27 0 30 6 5 7 0 9 -11 5 -10 -3 -4 3 12 12 17 10 44 17 62 16 23 -2
36 4 51 23 11 14 25 25 31 25 6 0 11 5 11 10 0 14 1 14 -145 -45z m78 -2 c-7
-2 -19 -2 -25 0 -7 3 -2 5 12 5 14 0 19 -2 13 -5z"/>
<path d="M7523 4420 c-1 -11 3 -23 9 -26 6 -4 8 -2 4 4 -3 6 -2 13 4 17 6 4 8
11 5 16 -10 15 -21 10 -22 -11z"/>
<path d="M7420 4426 c0 -2 7 -6 15 -10 8 -3 15 -1 15 4 0 6 -7 10 -15 10 -8 0
-15 -2 -15 -4z"/>
<path d="M7488 4383 c6 -2 18 -2 25 0 6 3 1 5 -13 5 -14 0 -19 -2 -12 -5z"/>
<path d="M7355 4370 c3 -5 8 -10 11 -10 2 0 4 5 4 10 0 6 -5 10 -11 10 -5 0
-7 -4 -4 -10z"/>
<path d="M7290 4350 c0 -5 5 -10 10 -10 6 0 10 5 10 10 0 6 -4 10 -10 10 -5 0
-10 -4 -10 -10z"/>
<path d="M7383 4208 c-15 -20 -25 -38 -20 -38 3 0 12 11 21 25 17 26 16 35 -1
13z"/>
<path d="M7295 4099 c-26 -33 -44 -63 -41 -66 3 -4 6 -1 6 5 0 7 7 12 16 12 8
0 13 4 10 8 -2 4 -1 14 5 22 7 13 9 13 9 0 0 -8 12 2 27 23 14 20 30 37 35 37
4 0 8 5 8 10 0 26 -31 5 -75 -51z"/>
<path d="M7227 4023 c-4 -3 -7 -11 -7 -17 0 -6 5 -5 12 2 6 6 9 14 7 17 -3 3
-9 2 -12 -2z"/>
<path d="M5625 3380 c-16 -7 -17 -9 -3 -9 9 -1 18 -7 21 -13 2 -7 3 -5 2 4 -2
9 5 19 14 21 12 4 12 5 1 5 -8 0 -24 -3 -35 -8z"/>
<path d="M5553 3353 c9 -2 23 -2 30 0 6 3 -1 5 -18 5 -16 0 -22 -2 -12 -5z"/>
<path d="M5512 3341 c-11 -6 -10 -10 4 -15 9 -3 19 -4 22 -1 3 3 0 5 -7 5 -7
0 -9 5 -6 10 7 12 4 12 -13 1z"/>
<path d="M5415 3313 c-27 -9 -52 -18 -54 -19 -1 -2 7 -13 19 -26 l22 -23 -12
24 c-11 21 -10 23 3 18 9 -3 18 1 21 10 5 11 15 14 39 9 20 -4 27 -3 18 3 -11
7 -11 9 0 14 31 12 -9 5 -56 -10z"/>
<path d="M5331 3283 c-10 -4 -8 -9 8 -18 22 -11 22 -12 -8 -12 -17 0 -28 5
-24 10 4 6 -2 8 -13 5 -10 -3 -40 -12 -66 -19 -27 -7 -48 -17 -48 -22 0 -5 8
-6 18 -2 9 4 24 8 32 9 8 0 18 6 23 11 4 6 11 4 17 -5 5 -8 10 -10 10 -5 0 6
5 3 10 -5 9 -13 12 -13 20 1 6 11 18 15 35 11 27 -5 35 15 10 24 -8 4 -12 10
-9 15 6 10 5 10 -15 2z"/>
<path d="M5110 3213 c-19 -9 -42 -16 -50 -17 -8 -1 -15 -7 -14 -13 3 -37 5
-43 13 -43 5 0 12 10 16 23 4 14 8 17 12 9 4 -10 8 -10 19 -1 10 8 14 8 14 0
0 -6 9 -11 20 -11 13 0 18 5 14 15 -4 8 -1 15 6 15 6 0 14 -9 17 -20 3 -11 10
-20 15 -20 6 0 7 -7 4 -16 -6 -15 -4 -15 10 -3 9 7 12 15 6 17 -5 1 -8 11 -5
20 3 12 -4 21 -24 28 -27 11 -27 11 9 8 21 -1 41 2 44 8 5 8 -3 9 -24 5 -17
-4 -34 -2 -37 3 -8 14 -24 12 -65 -7z m28 -38 c-3 -3 -9 2 -12 12 -6 14 -5 15
5 6 7 -7 10 -15 7 -18z"/>
<path d="M5250 3210 c0 -5 5 -10 10 -10 6 0 10 5 10 10 0 6 -4 10 -10 10 -5 0
-10 -4 -10 -10z"/>
<path d="M5283 3200 c2 -9 16 -15 33 -15 18 0 28 -5 26 -14 -1 -7 2 -10 8 -6
8 5 8 11 -1 21 -6 7 -15 11 -20 8 -5 -3 -9 1 -9 8 0 9 -3 9 -10 -2 -9 -13 -11
-13 -21 0 -9 13 -10 13 -6 0z"/>
<path d="M5447 3185 c-4 -8 -3 -16 1 -19 4 -3 9 4 9 15 2 23 -3 25 -10 4z"/>
<path d="M5225 3181 c-5 -10 14 -33 43 -51 12 -8 14 -13 5 -16 -7 -3 -13 -12
-13 -19 0 -9 10 -4 26 12 20 20 23 28 13 37 -9 8 -10 8 -5 -1 4 -7 2 -13 -3
-13 -6 0 -11 4 -11 8 0 5 -11 15 -25 22 -13 7 -22 17 -19 22 3 4 3 8 0 8 -3 0
-7 -4 -11 -9z"/>
<path d="M5250 3180 c0 -5 5 -10 10 -10 6 0 10 5 10 10 0 6 -4 10 -10 10 -5 0
-10 -4 -10 -10z"/>
<path d="M4978 3168 c-11 -9 -14 -24 -11 -50 7 -52 25 -48 21 5 -3 38 -1 42
20 41 12 -1 22 3 22 7 0 13 -34 11 -52 -3z"/>
<path d="M4927 3153 c-12 -12 -7 -22 16 -34 20 -11 21 -11 9 4 -8 9 -11 21 -7
27 7 11 -8 14 -18 3z"/>
<path d="M5083 3143 c-7 -2 -13 -17 -13 -32 0 -15 -5 -32 -12 -39 -9 -9 -8
-12 5 -12 9 0 16 3 16 8 -4 25 3 42 19 42 24 0 32 8 25 26 -5 14 -18 17 -40 7z"/>
<path d="M4860 3130 c-12 -7 -10 -9 7 -7 12 0 19 5 17 9 -6 10 -6 10 -24 -2z"/>
<path d="M5157 3133 c-4 -3 -1 -13 6 -21 10 -13 8 -15 -13 -9 -24 6 -24 5 -5
-9 12 -9 21 -11 23 -4 2 5 9 7 15 4 9 -5 9 -4 0 6 -6 7 -9 19 -6 26 5 14 -8
19 -20 7z"/>
<path d="M5507 3123 c6 -16 23 -17 23 -2 0 5 6 7 13 3 6 -4 9 -3 4 1 -13 15
-46 13 -40 -2z"/>
<path d="M4900 3120 c0 -5 5 -10 10 -10 6 0 10 5 10 10 0 6 -4 10 -10 10 -5 0
-10 -4 -10 -10z"/>
<path d="M5042 3105 c0 -16 2 -22 5 -12 2 9 2 23 0 30 -3 6 -5 -1 -5 -18z"/>
<path d="M5340 3119 c0 -5 -5 -7 -12 -3 -7 4 -8 3 -4 -5 6 -9 11 -9 22 0 17
14 18 19 4 19 -5 0 -10 -5 -10 -11z"/>
<path d="M4810 3115 c0 -5 5 -17 10 -25 5 -8 10 -10 10 -5 0 6 -5 17 -10 25
-5 8 -10 11 -10 5z"/>
<path d="M5220 3115 c0 -2 6 -8 13 -14 10 -8 14 -7 14 2 0 8 -6 14 -14 14 -7
0 -13 -1 -13 -2z"/>
<path d="M5455 3100 c2 -25 51 -70 76 -70 16 0 18 2 7 14 -7 8 -17 11 -22 8
-5 -3 -15 4 -23 14 -8 10 -17 18 -21 17 -4 -1 -6 4 -4 12 1 7 -1 16 -6 19 -5
3 -8 -4 -7 -14z"/>
<path d="M4775 3101 c-3 -5 -1 -12 4 -15 5 -3 11 1 15 9 6 16 -9 21 -19 6z"/>
<path d="M4850 3100 c-12 -8 -11 -10 7 -10 12 0 25 -5 29 -11 4 -8 -1 -9 -17
-4 -16 4 -20 3 -11 -3 11 -7 10 -11 -4 -16 -9 -3 -14 -9 -11 -12 6 -6 48 16
59 31 8 11 -9 35 -26 35 -6 0 -18 -5 -26 -10z"/>
<path d="M5200 3085 c-11 -13 -10 -14 4 -9 9 3 16 10 16 15 0 13 -6 11 -20 -6z"/>
<path d="M5296 3082 c-3 -4 4 -9 15 -9 23 -2 25 3 4 10 -8 4 -16 3 -19 -1z"/>
<path d="M5400 3085 c0 -5 9 -23 20 -40 11 -16 20 -24 20 -17 0 7 5 10 10 7 6
-3 10 -2 10 4 0 16 -18 23 -22 9 -3 -8 -12 0 -21 17 -9 17 -16 26 -17 20z"/>
<path d="M5550 3072 c0 -20 18 -42 35 -42 5 0 2 5 -7 11 -21 12 -24 35 -5 42
7 3 5 6 -5 6 -11 1 -18 -6 -18 -17z"/>
<path d="M5125 3060 c3 -5 8 -10 11 -10 2 0 4 5 4 10 0 6 -5 10 -11 10 -5 0
-7 -4 -4 -10z"/>
<path d="M5156 3055 c4 -8 8 -15 10 -15 2 0 4 7 4 15 0 8 -4 15 -10 15 -5 0
-7 -7 -4 -15z"/>
<path d="M5205 3060 c-4 -6 -11 -7 -17 -4 -7 4 -8 2 -4 -5 6 -9 12 -9 24 1 10
7 19 14 21 15 2 2 -1 3 -7 3 -6 0 -14 -5 -17 -10z"/>
<path d="M5600 3061 c0 -6 9 -9 20 -8 11 1 20 5 20 9 0 4 -9 8 -20 8 -11 0
-20 -4 -20 -9z"/>
<path d="M5273 3053 c-15 -6 -17 -33 -3 -33 6 0 10 7 10 16 0 10 6 14 15 10 8
-3 15 -1 15 4 0 11 -16 12 -37 3z"/>
<path d="M4880 3039 c0 -5 5 -9 11 -9 6 0 9 -7 5 -15 -3 -8 -1 -15 4 -15 6 0
10 7 10 16 0 9 5 12 13 8 9 -5 9 -4 0 6 -15 16 -43 22 -43 9z"/>
<path d="M5215 3030 c-3 -6 1 -7 9 -4 18 7 21 14 7 14 -6 0 -13 -4 -16 -10z"/>
<path d="M4778 3023 c7 -3 16 -2 19 1 4 3 -2 6 -13 5 -11 0 -14 -3 -6 -6z"/>
<path d="M5775 4870 c-3 -6 1 -7 9 -4 18 7 21 14 7 14 -6 0 -13 -4 -16 -10z"/>
<path d="M5647 4836 c-64 -17 -69 -26 -16 -26 28 0 53 7 69 20 29 23 16 24
-53 6z"/>
<path d="M5680 4784 c0 -8 5 -12 10 -9 6 4 8 11 5 16 -9 14 -15 11 -15 -7z"/>
<path d="M5110 4579 c0 -5 5 -7 10 -4 6 3 10 8 10 11 0 2 -4 4 -10 4 -5 0 -10
-5 -10 -11z"/>
<path d="M4891 4524 c0 -11 3 -14 6 -6 3 7 2 16 -1 19 -3 4 -6 -2 -5 -13z"/>
</g>
</svg>
